<svg xmlns="http://www.w3.org/2000/svg"
    xmlns:xlink="http://www.w3.org/1999/xlink" viewBox="0 0 500 500" width="500" height="500" preserveAspectRatio="xMidYMid meet" style="width: 100%; height: 100%; transform: translate3d(0px, 0px, 0px); content-visibility: visible;">
    <defs>
        <clipPath id="__lottie_element_5000">
            <rect width="500" height="500" x="0" y="0"></rect>
        </clipPath>
        <clipPath id="__lottie_element_5002">
            <path d="M0,0 L500,0 L500,500 L0,500z"></path>
        </clipPath>
    </defs>
    <g clip-path="url(#__lottie_element_5000)">
        <g clip-path="url(#__lottie_element_5002)" transform="matrix(1,0,0,1,0,0)" opacity="1" style="display: block;">
            <g transform="matrix(1,0,0,1,33.62800598144531,65.77801513671875)" opacity="1" style="display: block;">
                <g opacity="1" transform="matrix(1,0,0,1,196.36399841308594,4.406000137329102)">
                    <path fill="rgb(0,112,185)" fill-opacity="1" d="M0 0"></path>
                </g>
                <g opacity="1" transform="matrix(1,0,0,1,215.25,51.08399963378906)">
                    <path stroke-linecap="butt" stroke-linejoin="miter" fill-opacity="0" stroke-miterlimit="10" stroke="rgb(0,112,185)" stroke-opacity="1" stroke-width="2" d="M0 0"></path>
                </g>
                <g opacity="1" transform="matrix(1,0,0,1,353.625,273.2080078125)">
                    <path stroke-linecap="butt" stroke-linejoin="miter" fill-opacity="0" stroke-miterlimit="10" stroke="rgb(0,112,185)" stroke-opacity="1" stroke-width="2" d="M0 0"></path>
                </g>
                <g opacity="1" transform="matrix(1,0,0,1,432.6029968261719,292.135009765625)">
                    <path fill="rgb(0,112,185)" fill-opacity="1" d="M0 0"></path>
                </g>
                <g opacity="1" transform="matrix(1,0,0,1,418.43701171875,315.989013671875)">
                    <path fill="rgb(0,112,185)" fill-opacity="1" d="M0 0"></path>
                </g>
                <g opacity="1" transform="matrix(1,0,0,1,337.0419921875,289.4169921875)">
                    <path stroke-linecap="butt" stroke-linejoin="miter" fill-opacity="0" stroke-miterlimit="10" stroke="rgb(0,112,185)" stroke-opacity="1" stroke-width="2" d="M0 0"></path>
                </g>
                <g opacity="1" transform="matrix(1,0,0,1,320.47900390625,324.2919921875)">
                    <path stroke-linecap="butt" stroke-linejoin="miter" fill-opacity="0" stroke-miterlimit="10" stroke="rgb(0,112,185)" stroke-opacity="1" stroke-width="2" d="M0 0"></path>
                </g>
                <g opacity="1" transform="matrix(1,0,0,1,306.625,320.7909851074219)">
                    <path stroke-linecap="butt" stroke-linejoin="miter" fill-opacity="0" stroke-miterlimit="10" stroke="rgb(0,112,185)" stroke-opacity="1" stroke-width="2" d="M0 0"></path>
                </g>
                <g opacity="1" transform="matrix(1,0,0,1,311.2080078125,340.0409851074219)">
                    <path stroke-linecap="butt" stroke-linejoin="miter" fill-opacity="0" stroke-miterlimit="10" stroke="rgb(0,112,185)" stroke-opacity="1" stroke-width="2" d="M0 0"></path>
                </g>
                <g opacity="1" transform="matrix(1,0,0,1,302.06201171875,345.927001953125)">
                    <path fill="rgb(0,112,185)" fill-opacity="1" d="M0 0"></path>
                </g>
                <g opacity="1" transform="matrix(1,0,0,1,319.93701171875,356.427001953125)">
                    <path fill="rgb(0,112,185)" fill-opacity="1" d="M0 0"></path>
                </g>
                <g opacity="1" transform="matrix(1,0,0,1,292.7279968261719,329.593994140625)">
                    <path fill="rgb(0,112,185)" fill-opacity="1" d="M0 0"></path>
                </g>
                <g opacity="1" transform="matrix(1,0,0,1,239.95799255371094,323.2919921875)">
                    <path stroke-linecap="butt" stroke-linejoin="miter" fill-opacity="0" stroke-miterlimit="10" stroke="rgb(0,112,185)" stroke-opacity="1" stroke-width="2" d="M0 0"></path>
                </g>
                <g opacity="1" transform="matrix(1,0,0,1,221.14500427246094,373.843994140625)">
                    <path fill="rgb(0,112,185)" fill-opacity="1" d="M0 0"></path>
                </g>
                <g opacity="1" transform="matrix(1,0,0,1,41.354000091552734,312.156005859375)">
                    <path fill="rgb(0,112,185)" fill-opacity="1" d="M0 0"></path>
                </g>
                <g opacity="1" transform="matrix(1,0,0,1,119.625,288.0830078125)">
                    <path stroke-linecap="butt" stroke-linejoin="miter" fill-opacity="0" stroke-miterlimit="10" stroke="rgb(0,112,185)" stroke-opacity="1" stroke-width="2" d="M0 0"></path>
                </g>
                <g opacity="1" transform="matrix(1,0,0,1,207.56199645996094,323.093994140625)">
                    <path fill="rgb(0,112,185)" fill-opacity="1" d="M0 0"></path>
                </g>
                <g opacity="1" transform="matrix(1,0,0,1,151.56199645996094,376.760009765625)">
                    <path fill="rgb(0,112,185)" fill-opacity="1" d="M0 0"></path>
                </g>
                <g opacity="1" transform="matrix(1,0,0,1,184.375,325.625)">
                    <path stroke-linecap="butt" stroke-linejoin="miter" fill-opacity="0" stroke-miterlimit="10" stroke="rgb(0,112,185)" stroke-opacity="1" stroke-width="2" d="M0 0"></path>
                </g>
                <g opacity="1" transform="matrix(1,0,0,1,199,306.75)">
                    <path stroke-linecap="butt" stroke-linejoin="miter" fill-opacity="0" stroke-miterlimit="10" stroke="rgb(0,112,185)" stroke-opacity="1" stroke-width="2" d="M0 0"></path>
                </g>
                <g opacity="1" transform="matrix(1,0,0,1,37.323001861572266,270.989013671875)">
                    <path fill="rgb(0,112,185)" fill-opacity="1" d="M0 0"></path>
                </g>
                <g opacity="1" transform="matrix(1,0,0,1,112.572998046875,270.239013671875)">
                    <path fill="rgb(0,112,185)" fill-opacity="1" d="M0 0"></path>
                </g>
                <g opacity="1" transform="matrix(1,0,0,1,90.16699981689453,251.35400390625)">
                    <path stroke-linecap="butt" stroke-linejoin="miter" fill-opacity="0" stroke-miterlimit="10" stroke="rgb(0,112,185)" stroke-opacity="1" stroke-width="2" d="M0 0"></path>
                </g>
                <g opacity="1" transform="matrix(1,0,0,1,121.58300018310547,259.5830078125)">
                    <path stroke-linecap="butt" stroke-linejoin="miter" fill-opacity="0" stroke-miterlimit="10" stroke="rgb(0,112,185)" stroke-opacity="1" stroke-width="2" d="M0 0"></path>
                </g>
                <g opacity="1" transform="matrix(1,0,0,1,365.9580078125,124.29199981689453)">
                    <path stroke-linecap="butt" stroke-linejoin="miter" fill-opacity="0" stroke-miterlimit="10" stroke="rgb(0,112,185)" stroke-opacity="1" stroke-width="2" d="M0 0"></path>
                </g>
                <g opacity="1" transform="matrix(1,0,0,1,411.8529968261719,75.36499786376953)">
                    <path fill="rgb(0,112,185)" fill-opacity="1" d="M0 0"></path>
                </g>
                <g opacity="1" transform="matrix(1,0,0,1,429.5199890136719,139.843994140625)">
                    <path fill="rgb(0,112,185)" fill-opacity="1" d="M0 0"></path>
                </g>
                <g opacity="1" transform="matrix(1,0,0,1,388.43701171875,156.29200744628906)">
                    <path stroke-linecap="butt" stroke-linejoin="miter" fill-opacity="0" stroke-miterlimit="10" stroke="rgb(0,112,185)" stroke-opacity="1" stroke-width="2" d="M0 0"></path>
                </g>
                <g opacity="1" transform="matrix(1,0,0,1,113.91699981689453,118.25)">
                    <path stroke-linecap="butt" stroke-linejoin="miter" fill-opacity="0" stroke-miterlimit="10" stroke="rgb(0,112,185)" stroke-opacity="1" stroke-width="2" d="M0 0"></path>
                </g>
                <g opacity="1" transform="matrix(1,0,0,1,57.11399841308594,75.28099822998047)">
                    <path fill="rgb(0,112,185)" fill-opacity="1" d="M0 0"></path>
                </g>
                <g opacity="1" transform="matrix(1,0,0,1,77.11399841308594,42.78099822998047)">
                    <path fill="rgb(0,112,185)" fill-opacity="1" d="M0 0"></path>
                </g>
                <g opacity="1" transform="matrix(1,0,0,1,76.5,65.33300018310547)">
                    <path stroke-linecap="butt" stroke-linejoin="miter" fill-opacity="0" stroke-miterlimit="10" stroke="rgb(0,112,185)" stroke-opacity="1" stroke-width="2" d="M0 0"></path>
                </g>
                <g opacity="1" transform="matrix(1,0,0,1,158.35400390625,124.20800018310547)">
                    <path stroke-linecap="butt" stroke-linejoin="miter" fill-opacity="0" stroke-miterlimit="10" stroke="rgb(0,112,185)" stroke-opacity="1" stroke-width="2" d="M0 0"></path>
                </g>
                <g opacity="1" transform="matrix(1,0,0,1,5.406000137329102,246.697998046875)">
                    <path fill="rgb(0,112,185)" fill-opacity="1" d="M0 0"></path>
                </g>
                <g opacity="1" transform="matrix(1,0,0,1,55.125,228.54100036621094)">
                    <path stroke-linecap="butt" stroke-linejoin="miter" fill-opacity="0" stroke-miterlimit="10" stroke="rgb(0,112,185)" stroke-opacity="1" stroke-width="2" d="M0 0"></path>
                </g>
                <g opacity="1" transform="matrix(1,0,0,1,30.0939998626709,155.13499450683594)">
                    <path fill="rgb(0,112,185)" fill-opacity="1" d="M0 0"></path>
                </g>
                <g opacity="1" transform="matrix(1,0,0,1,10.947999954223633,122.48999786376953)">
                    <path fill="rgb(0,112,185)" fill-opacity="1" d="M0 0"></path>
                </g>
                <g opacity="1" transform="matrix(1,0,0,1,82.08300018310547,153.20799255371094)">
                    <path stroke-linecap="round" stroke-linejoin="round" fill-opacity="0" stroke="rgb(0,112,185)" stroke-opacity="1" stroke-width="1.5" d="M0 0"></path>
                </g>
                <g opacity="1" transform="matrix(1,0,0,1,29.625,133.45799255371094)">
                    <path stroke-linecap="round" stroke-linejoin="round" fill-opacity="0" stroke="rgb(0,112,185)" stroke-opacity="1" stroke-width="1.5" d="M0 0"></path>
                </g>
                <g opacity="1" transform="matrix(1,0,0,1,365.72900390625,220.875)">
                    <path stroke-linecap="butt" stroke-linejoin="miter" fill-opacity="0" stroke-miterlimit="10" stroke="rgb(0,112,185)" stroke-opacity="1" stroke-width="2" d="M0 0"></path>
                </g>
                <g opacity="1" transform="matrix(1,0,0,1,429.2699890136719,236.63499450683594)">
                    <path fill="rgb(0,112,185)" fill-opacity="1" d="M0 0"></path>
                </g>
                <g opacity="1" transform="matrix(1,0,0,1,438.8529968261719,213.88499450683594)">
                    <path fill="rgb(0,112,185)" fill-opacity="1" d="M0 0"></path>
                </g>
                <g opacity="1" transform="matrix(1,0,0,1,418.875,210.97900390625)">
                    <path stroke-linecap="butt" stroke-linejoin="miter" fill-opacity="0" stroke-miterlimit="10" stroke="rgb(0,112,185)" stroke-opacity="1" stroke-width="2" d="M0 0"></path>
                </g>
                <g opacity="1" transform="matrix(1,0,0,1,349.2699890136719,7.531000137329102)">
                    <path fill="rgb(0,112,185)" fill-opacity="1" d="M0 0"></path>
                </g>
                <g opacity="1" transform="matrix(1,0,0,1,318.5409851074219,85.04199981689453)">
                    <path stroke-linecap="butt" stroke-linejoin="miter" fill-opacity="0" stroke-miterlimit="10" stroke="rgb(0,112,185)" stroke-opacity="1" stroke-width="2" d="M0 0"></path>
                </g>
                <g opacity="1" transform="matrix(1,0,0,1,316.125,48.20800018310547)">
                    <path stroke-linecap="butt" stroke-linejoin="miter" fill-opacity="0" stroke-miterlimit="10" stroke="rgb(0,112,185)" stroke-opacity="1" stroke-width="2" d="M0 0"></path>
                </g>
            </g>
            <g transform="matrix(1,0,0,1,131.87799072265625,96.4990005493164)" opacity="1" style="display: block;">
                <g opacity="1" transform="matrix(1,0,0,1,107.96199798583984,206.2740020751953)">
                    <path fill="rgb(30,36,132)" fill-opacity="1" d=" M107.41300201416016,-12.338000297546387 C107.41300201416016,-12.338000297546387 107.41300201416016,-21.95199966430664 107.41300201416016,-21.95199966430664 C107.41300201416016,-21.95199966430664 107.40799713134766,-21.947999954223633 107.40799713134766,-21.947999954223633 C107.4219970703125,-20.597999572753906 106.76899719238281,-19.240999221801758 105.44499969482422,-18.45400047302246 C105.44499969482422,-18.45400047302246 22.125999450683594,31.086999893188477 22.125999450683594,31.086999893188477 C20.09000015258789,32.29800033569336 17.55900001525879,32.3120002746582 15.510000228881836,31.12700080871582 C15.510000228881836,31.12700080871582 8.364999771118164,26.993000030517578 -2.4549999237060547,20.733999252319336"></path>
                </g>
                <g opacity="1" transform="matrix(1,0,0,1,107.8239974975586,174.177001953125)">
                    <path fill="rgb(53,60,155)" fill-opacity="1" d=" M-105.5459976196289,-6.892000198364258 C-105.5459976196289,-6.892000198364258 -15.093000411987305,45.4379997253418 9.526000022888184,59.680999755859375"></path>
                </g>
                <g opacity="1" transform="matrix(1,0,0,1,87.61000061035156,124.48999786376953)">
                    <path fill="rgb(0,112,185)" fill-opacity="1" d=" M-0.1599999964237213,-5.2820000648498535 C-0.1599999964237213,-5.2820000648498535 -8.803000450134277,0.0010000000474974513 -8.803000450134277,0.0010000000474974513 C-8.803000450134277,0.0010000000474974513 -8.581999778747559,0.13600000739097595 -8.208999633789062,0.36399999260902405"></path>
                </g>
                <g opacity="1" transform="matrix(1,0,0,1,98.09400177001953,130.49200439453125)">
                    <path fill="rgb(0,112,185)" fill-opacity="1" d=" M-0.1599999964237213,-5.2820000648498535 C-0.1599999964237213,-5.2820000648498535 -8.803000450134277,0.0010000000474974513 -8.803000450134277,0.0010000000474974513 C-8.803000450134277,0.0010000000474974513 -8.581999778747559,0.13600000739097595 -8.208999633789062,0.36399999260902405"></path>
                </g>
                <g opacity="1" transform="matrix(1,0,0,1,108.5770034790039,136.4929962158203)">
                    <path fill="rgb(0,112,185)" fill-opacity="1" d=" M-0.1599999964237213,-5.2820000648498535 C-0.1599999964237213,-5.2820000648498535 -8.803000450134277,0.0010000000474974513 -8.803000450134277,0.0010000000474974513 C-8.803000450134277,0.0010000000474974513 -8.581999778747559,0.13600000739097595 -8.208999633789062,0.36399999260902405"></path>
                </g>
                <g opacity="1" transform="matrix(1,0,0,1,119.06099700927734,142.49600219726562)">
                    <path fill="rgb(0,112,185)" fill-opacity="1" d=" M-0.1599999964237213,-5.2820000648498535 C-0.1599999964237213,-5.2820000648498535 -8.803000450134277,0 -8.803000450134277,0 C-8.803000450134277,0 -8.581000328063965,0.13500000536441803 -8.208999633789062,0.3630000054836273"></path>
                </g>
                <g opacity="1" transform="matrix(1,0,0,1,129.5449981689453,148.4980010986328)">
                    <path fill="rgb(0,112,185)" fill-opacity="1" d=" M-0.1599999964237213,-5.2820000648498535 C-0.1599999964237213,-5.2820000648498535 -8.803000450134277,0.0010000000474974513 -8.803000450134277,0.0010000000474974513 C-8.803000450134277,0.0010000000474974513 -8.581999778747559,0.13600000739097595 -8.210000038146973,0.3630000054836273"></path>
                </g>
                <g opacity="1" transform="matrix(1,0,0,1,140.0290069580078,154.5)">
                    <path fill="rgb(0,112,185)" fill-opacity="1" d=" M-0.1599999964237213,-5.2820000648498535 C-0.1599999964237213,-5.2820000648498535 -8.803000450134277,0 -8.803000450134277,0 C-8.803000450134277,0 -8.581000328063965,0.13500000536441803 -8.208999633789062,0.3630000054836273"></path>
                </g>
                <g opacity="1" transform="matrix(1,0,0,1,150.51199340820312,160.5019989013672)">
                    <path fill="rgb(0,112,185)" fill-opacity="1" d=" M-0.1589999943971634,-5.2820000648498535 C-0.1589999943971634,-5.2820000648498535 -8.803000450134277,-0.0010000000474974513 -8.803000450134277,-0.0010000000474974513 C-8.803000450134277,-0.0010000000474974513 -8.581999778747559,0.1340000033378601 -8.210000038146973,0.3619999885559082"></path>
                </g>
                <g opacity="1" transform="matrix(1,0,0,1,160.9949951171875,166.50399780273438)">
                    <path fill="rgb(0,112,185)" fill-opacity="1" d=" M-0.1589999943971634,-5.281000137329102 C-0.1589999943971634,-5.281000137329102 -8.803000450134277,0 -8.803000450134277,0 C-8.803000450134277,0 -8.581999778747559,0.13500000536441803 -8.210000038146973,0.3630000054836273"></path>
                </g>
                <g opacity="1" transform="matrix(1,0,0,1,171.47900390625,172.50599670410156)">
                    <path fill="rgb(0,112,185)" fill-opacity="1" d=" M-0.1599999964237213,-5.2820000648498535 C-0.1599999964237213,-5.2820000648498535 -8.803000450134277,-0.0010000000474974513 -8.803000450134277,-0.0010000000474974513 C-8.803000450134277,-0.0010000000474974513 -8.581000328063965,0.13500000536441803 -8.208999633789062,0.3619999885559082"></path>
                </g>
                <g opacity="1" transform="matrix(1,0,0,1,184.07899475097656,180.20799255371094)">
                    <path fill="rgb(0,112,185)" fill-opacity="1" d=" M-2.2760000228881836,-6.98199987411499 C-2.2760000228881836,-6.98199987411499 -10.918999671936035,-1.6990000009536743 -10.918999671936035,-1.6990000009536743 C-10.918999671936035,-1.6990000009536743 -9.63700008392334,-0.949999988079071 -7.824999809265137,0.10700000077486038"></path>
                </g>
                <g opacity="1" transform="matrix(1,0,0,1,192.44700622558594,184.50999450683594)">
                    <path fill="rgb(0,112,185)" fill-opacity="1" d=" M-0.1589999943971634,-5.281000137329102 C-0.1589999943971634,-5.281000137329102 -8.803000450134277,0.0010000000474974513 -8.803000450134277,0.0010000000474974513 C-8.803000450134277,0.0010000000474974513 -8.581999778747559,0.13600000739097595 -8.210000038146973,0.3630000054836273"></path>
                </g>
                <g opacity="1" transform="matrix(1,0,0,1,77.36699676513672,130.57200622558594)">
                    <path fill="rgb(0,112,185)" fill-opacity="1" d=" M-0.1599999964237213,-5.2820000648498535 C-0.1599999964237213,-5.2820000648498535 -8.803000450134277,0.0010000000474974513 -8.803000450134277,0.0010000000474974513 C-8.803000450134277,0.0010000000474974513 -8.581999778747559,0.13600000739097595 -8.208999633789062,0.36399999260902405"></path>
                </g>
                <g opacity="1" transform="matrix(1,0,0,1,87.85099792480469,136.572998046875)">
                    <path fill="rgb(0,112,185)" fill-opacity="1" d=" M-0.1599999964237213,-5.2820000648498535 C-0.1599999964237213,-5.2820000648498535 -8.803000450134277,0.0010000000474974513 -8.803000450134277,0.0010000000474974513 C-8.803000450134277,0.0010000000474974513 -8.581999778747559,0.13600000739097595 -8.208999633789062,0.36399999260902405"></path>
                </g>
                <g opacity="1" transform="matrix(1,0,0,1,98.33399963378906,142.5760040283203)">
                    <path fill="rgb(0,112,185)" fill-opacity="1" d=" M-0.1599999964237213,-5.2820000648498535 C-0.1599999964237213,-5.2820000648498535 -8.803000450134277,0 -8.803000450134277,0 C-8.803000450134277,0 -8.581000328063965,0.13500000536441803 -8.208999633789062,0.3630000054836273"></path>
                </g>
                <g opacity="1" transform="matrix(1,0,0,1,108.81800079345703,148.5780029296875)">
                    <path fill="rgb(0,112,185)" fill-opacity="1" d=" M-0.1599999964237213,-5.2820000648498535 C-0.1599999964237213,-5.2820000648498535 -8.803000450134277,0 -8.803000450134277,0 C-8.803000450134277,0 -8.581000328063965,0.13500000536441803 -8.208999633789062,0.3630000054836273"></path>
                </g>
                <g opacity="1" transform="matrix(1,0,0,1,119.302001953125,154.5800018310547)">
                    <path fill="rgb(0,112,185)" fill-opacity="1" d=" M-0.1599999964237213,-5.2820000648498535 C-0.1599999964237213,-5.2820000648498535 -8.803000450134277,0 -8.803000450134277,0 C-8.803000450134277,0 -8.581000328063965,0.13500000536441803 -8.208999633789062,0.3630000054836273"></path>
                </g>
                <g opacity="1" transform="matrix(1,0,0,1,129.78500366210938,160.58200073242188)">
                    <path fill="rgb(0,112,185)" fill-opacity="1" d=" M-0.1599999964237213,-5.2820000648498535 C-0.1599999964237213,-5.2820000648498535 -8.803000450134277,-0.0010000000474974513 -8.803000450134277,-0.0010000000474974513 C-8.803000450134277,-0.0010000000474974513 -8.581000328063965,0.13500000536441803 -8.208999633789062,0.3619999885559082"></path>
                </g>
                <g opacity="1" transform="matrix(1,0,0,1,140.26800537109375,166.58399963378906)">
                    <path fill="rgb(0,112,185)" fill-opacity="1" d=" M-0.1599999964237213,-5.281000137329102 C-0.1599999964237213,-5.281000137329102 -8.803000450134277,0 -8.803000450134277,0 C-8.803000450134277,0 -8.581000328063965,0.13600000739097595 -8.208999633789062,0.3630000054836273"></path>
                </g>
                <g opacity="1" transform="matrix(1,0,0,1,150.7519989013672,172.58599853515625)">
                    <path fill="rgb(0,112,185)" fill-opacity="1" d=" M-0.1599999964237213,-5.281000137329102 C-0.1599999964237213,-5.281000137329102 -8.803000450134277,0 -8.803000450134277,0 C-8.803000450134277,0 -8.581000328063965,0.13600000739097595 -8.208999633789062,0.3630000054836273"></path>
                </g>
                <g opacity="1" transform="matrix(1,0,0,1,161.23599243164062,178.58799743652344)">
                    <path fill="rgb(0,112,185)" fill-opacity="1" d=" M-0.1589999943971634,-5.2820000648498535 C-0.1589999943971634,-5.2820000648498535 -8.803000450134277,-0.0010000000474974513 -8.803000450134277,-0.0010000000474974513 C-8.803000450134277,-0.0010000000474974513 -8.581999778747559,0.1340000033378601 -8.210000038146973,0.3619999885559082"></path>
                </g>
                <g opacity="1" transform="matrix(1,0,0,1,171.72000122070312,184.58999633789062)">
                    <path fill="rgb(0,112,185)" fill-opacity="1" d=" M-0.1599999964237213,-5.281000137329102 C-0.1599999964237213,-5.281000137329102 -8.803000450134277,0.0010000000474974513 -8.803000450134277,0.0010000000474974513 C-8.803000450134277,0.0010000000474974513 -8.581000328063965,0.13600000739097595 -8.208999633789062,0.36399999260902405"></path>
                </g>
                <g opacity="1" transform="matrix(1,0,0,1,182.2030029296875,190.5919952392578)">
                    <path fill="rgb(0,112,185)" fill-opacity="1" d=" M-0.1599999964237213,-5.2820000648498535 C-0.1599999964237213,-5.2820000648498535 -8.803000450134277,0.0010000000474974513 -8.803000450134277,0.0010000000474974513 C-8.803000450134277,0.0010000000474974513 -8.581999778747559,0.13600000739097595 -8.210000038146973,0.3630000054836273"></path>
                </g>
                <g opacity="1" transform="matrix(1,0,0,1,68.7249984741211,138.47300720214844)">
                    <path fill="rgb(0,112,185)" fill-opacity="1" d=" M-1.7619999647140503,-7.10099983215332 C-1.7619999647140503,-7.10099983215332 -10.404999732971191,-1.8179999589920044 -10.404999732971191,-1.8179999589920044 C-10.404999732971191,-1.8179999589920044 -9.244000434875488,-1.1369999647140503 -7.563000202178955,-0.15199999511241913"></path>
                </g>
                <g opacity="1" transform="matrix(1,0,0,1,77.60700225830078,142.65499877929688)">
                    <path fill="rgb(0,112,185)" fill-opacity="1" d=" M-0.1599999964237213,-5.2820000648498535 C-0.1599999964237213,-5.2820000648498535 -8.803000450134277,0.0010000000474974513 -8.803000450134277,0.0010000000474974513 C-8.803000450134277,0.0010000000474974513 -8.581999778747559,0.13600000739097595 -8.210000038146973,0.3630000054836273"></path>
                </g>
                <g opacity="1" transform="matrix(1,0,0,1,88.09100341796875,148.6580047607422)">
                    <path fill="rgb(0,112,185)" fill-opacity="1" d=" M-0.1599999964237213,-5.2820000648498535 C-0.1599999964237213,-5.2820000648498535 -8.803000450134277,0 -8.803000450134277,0 C-8.803000450134277,0 -8.581000328063965,0.13500000536441803 -8.208999633789062,0.3630000054836273"></path>
                </g>
                <g opacity="1" transform="matrix(1,0,0,1,98.5739974975586,154.66000366210938)">
                    <path fill="rgb(0,112,185)" fill-opacity="1" d=" M-0.1599999964237213,-5.2820000648498535 C-0.1599999964237213,-5.2820000648498535 -8.803000450134277,0 -8.803000450134277,0 C-8.803000450134277,0 -8.581000328063965,0.13500000536441803 -8.208999633789062,0.3630000054836273"></path>
                </g>
                <g opacity="1" transform="matrix(1,0,0,1,109.05799865722656,160.66200256347656)">
                    <path fill="rgb(0,112,185)" fill-opacity="1" d=" M-0.1599999964237213,-5.2820000648498535 C-0.1599999964237213,-5.2820000648498535 -8.803000450134277,0 -8.803000450134277,0 C-8.803000450134277,0 -8.581000328063965,0.13500000536441803 -8.208999633789062,0.3630000054836273"></path>
                </g>
                <g opacity="1" transform="matrix(1,0,0,1,119.54100036621094,166.66400146484375)">
                    <path fill="rgb(0,112,185)" fill-opacity="1" d=" M-0.1589999943971634,-5.2820000648498535 C-0.1589999943971634,-5.2820000648498535 -8.803000450134277,-0.0010000000474974513 -8.803000450134277,-0.0010000000474974513 C-8.803000450134277,-0.0010000000474974513 -8.581999778747559,0.1340000033378601 -8.210000038146973,0.3619999885559082"></path>
                </g>
                <g opacity="1" transform="matrix(1,0,0,1,130.02499389648438,172.66600036621094)">
                    <path fill="rgb(0,112,185)" fill-opacity="1" d=" M-0.1589999943971634,-5.281000137329102 C-0.1589999943971634,-5.281000137329102 -8.803000450134277,0 -8.803000450134277,0 C-8.803000450134277,0 -8.581999778747559,0.13500000536441803 -8.210000038146973,0.3630000054836273"></path>
                </g>
                <g opacity="1" transform="matrix(1,0,0,1,140.50900268554688,178.66799926757812)">
                    <path fill="rgb(0,112,185)" fill-opacity="1" d=" M-0.1599999964237213,-5.281000137329102 C-0.1599999964237213,-5.281000137329102 -8.803000450134277,0 -8.803000450134277,0 C-8.803000450134277,0 -8.581000328063965,0.13600000739097595 -8.208999633789062,0.3630000054836273"></path>
                </g>
                <g opacity="1" transform="matrix(1,0,0,1,150.9929962158203,184.6699981689453)">
                    <path fill="rgb(0,112,185)" fill-opacity="1" d=" M-0.1599999964237213,-5.2820000648498535 C-0.1599999964237213,-5.2820000648498535 -8.803000450134277,0.0010000000474974513 -8.803000450134277,0.0010000000474974513 C-8.803000450134277,0.0010000000474974513 -8.581999778747559,0.13600000739097595 -8.210000038146973,0.3630000054836273"></path>
                </g>
                <g opacity="1" transform="matrix(1,0,0,1,161.4759979248047,190.6719970703125)">
                    <path fill="rgb(0,112,185)" fill-opacity="1" d=" M-0.1589999943971634,-5.281000137329102 C-0.1589999943971634,-5.281000137329102 -8.803000450134277,0.0010000000474974513 -8.803000450134277,0.0010000000474974513 C-8.803000450134277,0.0010000000474974513 -8.581999778747559,0.13600000739097595 -8.210000038146973,0.3630000054836273"></path>
                </g>
                <g opacity="1" transform="matrix(1,0,0,1,171.95899963378906,196.6739959716797)">
                    <path fill="rgb(0,112,185)" fill-opacity="1" d=" M-0.1589999943971634,-5.2820000648498535 C-0.1589999943971634,-5.2820000648498535 -8.803000450134277,0.0010000000474974513 -8.803000450134277,0.0010000000474974513 C-8.803000450134277,0.0010000000474974513 -8.581999778747559,0.13600000739097595 -8.210000038146973,0.3630000054836273"></path>
                </g>
                <g opacity="1" transform="matrix(1,0,0,1,59.30500030517578,144.2519989013672)">
                    <path fill="rgb(0,112,185)" fill-opacity="1" d=" M-2.5850000381469727,-6.797999858856201 C-2.5850000381469727,-6.797999858856201 -11.229000091552734,-1.5149999856948853 -11.229000091552734,-1.5149999856948853 C-11.229000091552734,-1.5149999856948853 -9.880999565124512,-0.7350000143051147 -8.01099967956543,0.34599998593330383"></path>
                </g>
                <g opacity="1" transform="matrix(1,0,0,1,67.36299896240234,148.73800659179688)">
                    <path fill="rgb(0,112,185)" fill-opacity="1" d=" M-0.1599999964237213,-5.2820000648498535 C-0.1599999964237213,-5.2820000648498535 -8.803000450134277,0 -8.803000450134277,0 C-8.803000450134277,0 -8.581000328063965,0.13500000536441803 -8.208999633789062,0.3630000054836273"></path>
                </g>
                <g opacity="1" transform="matrix(1,0,0,1,77.84700012207031,154.74000549316406)">
                    <path fill="rgb(0,112,185)" fill-opacity="1" d=" M-0.1599999964237213,-5.281000137329102 C-0.1599999964237213,-5.281000137329102 -8.803000450134277,0.0010000000474974513 -8.803000450134277,0.0010000000474974513 C-8.803000450134277,0.0010000000474974513 -8.581000328063965,0.13600000739097595 -8.208999633789062,0.36399999260902405"></path>
                </g>
                <g opacity="1" transform="matrix(1,0,0,1,88.33000183105469,160.74200439453125)">
                    <path fill="rgb(0,112,185)" fill-opacity="1" d=" M-0.1599999964237213,-5.2820000648498535 C-0.1599999964237213,-5.2820000648498535 -8.803000450134277,0 -8.803000450134277,0 C-8.803000450134277,0 -8.581000328063965,0.13500000536441803 -8.208999633789062,0.3630000054836273"></path>
                </g>
                <g opacity="1" transform="matrix(1,0,0,1,98.81400299072266,166.74400329589844)">
                    <path fill="rgb(0,112,185)" fill-opacity="1" d=" M-0.1599999964237213,-5.281000137329102 C-0.1599999964237213,-5.281000137329102 -8.803000450134277,0 -8.803000450134277,0 C-8.803000450134277,0 -8.581000328063965,0.13600000739097595 -8.208999633789062,0.3630000054836273"></path>
                </g>
                <g opacity="1" transform="matrix(1,0,0,1,109.2979965209961,172.74600219726562)">
                    <path fill="rgb(0,112,185)" fill-opacity="1" d=" M-0.1599999964237213,-5.2820000648498535 C-0.1599999964237213,-5.2820000648498535 -8.803000450134277,-0.0010000000474974513 -8.803000450134277,-0.0010000000474974513 C-8.803000450134277,-0.0010000000474974513 -8.581000328063965,0.13500000536441803 -8.208999633789062,0.3619999885559082"></path>
                </g>
                <g opacity="1" transform="matrix(1,0,0,1,119.78199768066406,178.7480010986328)">
                    <path fill="rgb(0,112,185)" fill-opacity="1" d=" M-0.1599999964237213,-5.281000137329102 C-0.1599999964237213,-5.281000137329102 -8.803000450134277,0 -8.803000450134277,0 C-8.803000450134277,0 -8.581000328063965,0.13600000739097595 -8.208999633789062,0.3630000054836273"></path>
                </g>
                <g opacity="1" transform="matrix(1,0,0,1,130.26499938964844,184.75)">
                    <path fill="rgb(0,112,185)" fill-opacity="1" d=" M-0.1589999943971634,-5.2820000648498535 C-0.1589999943971634,-5.2820000648498535 -8.803000450134277,0.0010000000474974513 -8.803000450134277,0.0010000000474974513 C-8.803000450134277,0.0010000000474974513 -8.581999778747559,0.13600000739097595 -8.210000038146973,0.3630000054836273"></path>
                </g>
                <g opacity="1" transform="matrix(1,0,0,1,140.7480010986328,190.7519989013672)">
                    <path fill="rgb(0,112,185)" fill-opacity="1" d=" M-0.1589999943971634,-5.2820000648498535 C-0.1589999943971634,-5.2820000648498535 -8.803000450134277,0.0010000000474974513 -8.803000450134277,0.0010000000474974513 C-8.803000450134277,0.0010000000474974513 -8.581999778747559,0.13600000739097595 -8.210000038146973,0.3630000054836273"></path>
                </g>
                <g opacity="1" transform="matrix(1,0,0,1,151.23199462890625,196.75399780273438)">
                    <path fill="rgb(0,112,185)" fill-opacity="1" d=" M-0.1599999964237213,-5.281000137329102 C-0.1599999964237213,-5.281000137329102 -8.803000450134277,0.0010000000474974513 -8.803000450134277,0.0010000000474974513 C-8.803000450134277,0.0010000000474974513 -8.581000328063965,0.13600000739097595 -8.208999633789062,0.36399999260902405"></path>
                </g>
                <g opacity="1" transform="matrix(1,0,0,1,161.71600341796875,202.7570037841797)">
                    <path fill="rgb(0,112,185)" fill-opacity="1" d=" M-0.1599999964237213,-5.2820000648498535 C-0.1599999964237213,-5.2820000648498535 -8.803000450134277,0 -8.803000450134277,0 C-8.803000450134277,0 -8.581000328063965,0.13500000536441803 -8.208999633789062,0.3630000054836273"></path>
                </g>
                <g opacity="1" transform="matrix(1,0,0,1,46.63600158691406,148.8179931640625)">
                    <path fill="rgb(0,112,185)" fill-opacity="1" d=" M-0.1599999964237213,-5.2820000648498535 C-0.1599999964237213,-5.2820000648498535 -8.803000450134277,0 -8.803000450134277,0 C-8.803000450134277,0 -8.581000328063965,0.13500000536441803 -8.208999633789062,0.3630000054836273"></path>
                </g>
                <g opacity="1" transform="matrix(1,0,0,1,57.119998931884766,154.82000732421875)">
                    <path fill="rgb(0,112,185)" fill-opacity="1" d=" M-0.1599999964237213,-5.281000137329102 C-0.1599999964237213,-5.281000137329102 -8.803000450134277,0.0010000000474974513 -8.803000450134277,0.0010000000474974513 C-8.803000450134277,0.0010000000474974513 -8.581000328063965,0.13600000739097595 -8.208999633789062,0.36399999260902405"></path>
                </g>
                <g opacity="1" transform="matrix(1,0,0,1,67.60299682617188,160.82200622558594)">
                    <path fill="rgb(0,112,185)" fill-opacity="1" d=" M-0.1599999964237213,-5.2820000648498535 C-0.1599999964237213,-5.2820000648498535 -8.803000450134277,0 -8.803000450134277,0 C-8.803000450134277,0 -8.581000328063965,0.13500000536441803 -8.208999633789062,0.3630000054836273"></path>
                </g>
                <g opacity="1" transform="matrix(1,0,0,1,80.17500305175781,168.17999267578125)">
                    <path fill="rgb(0,112,185)" fill-opacity="1" d=" M-2.246999979019165,-6.638999938964844 C-2.246999979019165,-6.638999938964844 -10.890999794006348,-1.3559999465942383 -10.890999794006348,-1.3559999465942383 C-10.890999794006348,-1.3559999465942383 -9.694999694824219,-0.6690000295639038 -8.003999710083008,0.30300000309944153"></path>
                </g>
                <g opacity="1" transform="matrix(1,0,0,1,90.87100219726562,174.4199981689453)">
                    <path fill="rgb(0,112,185)" fill-opacity="1" d=" M-2.4600000381469727,-6.875 C-2.4600000381469727,-6.875 -11.104000091552734,-1.593999981880188 -11.104000091552734,-1.593999981880188 C-11.104000091552734,-1.593999981880188 -9.782999992370605,-0.8299999833106995 -7.934999942779541,0.23899999260902405"></path>
                </g>
                <g opacity="1" transform="matrix(1,0,0,1,101.36699676513672,180.53900146484375)">
                    <path fill="rgb(0,112,185)" fill-opacity="1" d=" M-2.4730000495910645,-6.992000102996826 C-2.4730000495910645,-6.992000102996826 -11.116000175476074,-1.7109999656677246 -11.116000175476074,-1.7109999656677246 C-11.116000175476074,-1.7109999656677246 -9.765999794006348,-0.9229999780654907 -7.877999782562256,0.17900000512599945"></path>
                </g>
                <g opacity="1" transform="matrix(1,0,0,1,109.53800201416016,184.8300018310547)">
                    <path fill="rgb(0,112,185)" fill-opacity="1" d=" M-0.1599999964237213,-5.281000137329102 C-0.1599999964237213,-5.281000137329102 -8.803000450134277,0 -8.803000450134277,0 C-8.803000450134277,0 -8.581000328063965,0.13600000739097595 -8.208999633789062,0.3630000054836273"></path>
                </g>
                <g opacity="1" transform="matrix(1,0,0,1,120.02200317382812,190.83200073242188)">
                    <path fill="rgb(0,112,185)" fill-opacity="1" d=" M-0.1599999964237213,-5.2820000648498535 C-0.1599999964237213,-5.2820000648498535 -8.803000450134277,0.0010000000474974513 -8.803000450134277,0.0010000000474974513 C-8.803000450134277,0.0010000000474974513 -8.581999778747559,0.13600000739097595 -8.210000038146973,0.3630000054836273"></path>
                </g>
                <g opacity="1" transform="matrix(1,0,0,1,130.5050048828125,196.83399963378906)">
                    <path fill="rgb(0,112,185)" fill-opacity="1" d=" M-0.1589999943971634,-5.281000137329102 C-0.1589999943971634,-5.281000137329102 -8.803000450134277,0.0010000000474974513 -8.803000450134277,0.0010000000474974513 C-8.803000450134277,0.0010000000474974513 -8.581999778747559,0.13600000739097595 -8.210000038146973,0.3630000054836273"></path>
                </g>
                <g opacity="1" transform="matrix(1,0,0,1,143.36599731445312,204.572998046875)">
                    <path fill="rgb(0,112,185)" fill-opacity="1" d=" M-2.5369999408721924,-7.01800012588501 C-2.5369999408721924,-7.01800012588501 -11.180999755859375,-1.7359999418258667 -11.180999755859375,-1.7359999418258667 C-11.180999755859375,-1.7359999418258667 -9.803000450134277,-0.9319999814033508 -7.881999969482422,0.1889999955892563"></path>
                </g>
                <g opacity="1" transform="matrix(1,0,0,1,151.4720001220703,208.83900451660156)">
                    <path fill="rgb(0,112,185)" fill-opacity="1" d=" M-0.1599999964237213,-5.2820000648498535 C-0.1599999964237213,-5.2820000648498535 -8.803000450134277,0 -8.803000450134277,0 C-8.803000450134277,0 -8.581000328063965,0.13500000536441803 -8.208999633789062,0.3630000054836273"></path>
                </g>
                <g opacity="1" transform="matrix(1,0,0,1,80.13899993896484,189.12100219726562)">
                    <path fill="rgb(30,36,132)" fill-opacity="1" d=" M-13.862000465393066,-20.5 C-13.862000465393066,-20.5 -35.29600143432617,-7.709000110626221 -35.29600143432617,-7.709000110626221 C-35.29600143432617,-7.709000110626221 -28.31800079345703,-3.693000078201294 -19.62700080871582,1.3079999685287476"></path>
                </g>
                <g opacity="1" transform="matrix(1,0,0,1,91.97899627685547,5.625999927520752)">
                    <path fill="rgb(30,36,132)" fill-opacity="1" d=" M-0.18799999356269836,0.1120000034570694 C-0.18799999356269836,0.1120000034570694 -0.15600000321865082,0.11500000208616257 -0.15600000321865082,0.11500000208616257 C-0.10300000011920929,0.07500000298023224 -0.04699999839067459,0.035999998450279236 0.008999999612569809,-0.0010000000474974513"></path>
                </g>
                <g opacity="1" transform="matrix(1,0,0,1,159.68600463867188,90.49600219726562)">
                    <path fill="rgb(30,36,132)" fill-opacity="1" d=" M63.72600173950195,-19.72599983215332 C63.72600173950195,-19.72599983215332 -39.8849983215332,-79.9000015258789 -54.33700180053711,-88.29399871826172"></path>
                </g>
                <g opacity="1" transform="matrix(1,0,0,1,154.8249969482422,93.13400268554688)">
                    <path fill="rgb(70,82,183)" fill-opacity="1" d=" M65.1240005493164,83.79299926757812 C65.1240005493164,83.79299926757812 65.27200317382812,-11.979000091552734 65.27200317382812,-11.979000091552734 C65.2760009765625,-14.532999992370605 63.91899871826172,-16.893999099731445 61.71099853515625,-18.176000595092773 C61.71099853515625,-18.176000595092773 51.21099853515625,-24.27400016784668 36.42900085449219,-32.85900115966797"></path>
                </g>
                <g opacity="1" transform="matrix(1,0,0,1,154.94500732421875,92.18800354003906)">
                    <path fill="rgb(35,43,132)" fill-opacity="1" d=" M-57.492000579833984,11.75100040435791 C-57.492000579833984,11.75100040435791 -57.03300094604492,-76.33999633789062 -57.03300094604492,-76.33999633789062 C-57.03300094604492,-76.33999633789062 -47.090999603271484,-70.66699981689453 -33.066001892089844,-62.66400146484375"></path>
                </g>
            </g>
            <g transform="matrix(1,0,0,1,251.52899169921875,145.5699920654297)" opacity="1" style="display: block;">
                <g opacity="1" transform="matrix(1,0,0,1,31.29400062561035,37.25699996948242)">
                    <path fill="rgb(0,70,183)" fill-opacity="1" d="M0 0"></path>
                </g>
                <g opacity="1" transform="matrix(1,0,0,1,27.433000564575195,38.09000015258789)">
                    <path fill="rgb(0,112,185)" fill-opacity="1" d="M0 0"></path>
                </g>
                <g opacity="1" transform="matrix(1,0,0,1,25.009000778198242,41.36600112915039)">
                    <path fill="rgb(35,43,132)" fill-opacity="1" d="M0 0"></path>
                </g>
            </g>
            <g transform="matrix(1,0,0,1,77.9949951171875,215.62399291992188)" opacity="1" style="display: block;">
                <g opacity="1" transform="matrix(1,0,0,1,21.158000946044922,28.878999710083008)">
                    <path fill="rgb(0,70,183)" fill-opacity="1" d="M0 0"></path>
                </g>
                <g opacity="1" transform="matrix(1,0,0,1,17.476999282836914,32.54499816894531)">
                    <path fill="rgb(0,112,185)" fill-opacity="1" d="M0 0"></path>
                </g>
                <g opacity="1" transform="matrix(1,0,0,1,6.861999988555908,26.2450008392334)">
                    <path fill="rgb(0,70,183)" fill-opacity="1" d="M0 0"></path>
                </g>
                <g opacity="1" transform="matrix(1,0,0,1,16.34000015258789,32.029998779296875)">
                    <path fill="rgb(0,70,183)" fill-opacity="1" d="M0 0"></path>
                </g>
                <g opacity="1" transform="matrix(1,0,0,1,27.003999710083008,37.395999908447266)">
                    <path fill="rgb(0,70,183)" fill-opacity="1" d="M0 0"></path>
                </g>
            </g>
            <g transform="matrix(1,0,0,1,376.4010009765625,280.5459899902344)" opacity="1" style="display: block;">
                <g opacity="1" transform="matrix(1,0,0,1,23.601999282836914,46.27199935913086)">
                    <path fill="rgb(0,59,181)" fill-opacity="1" d="M0 0"></path>
                </g>
                <g opacity="1" transform="matrix(1,0,0,1,19.260000228881836,48.70000076293945)">
                    <path fill="rgb(13,90,204)" fill-opacity="1" d="M0 0"></path>
                </g>
                <g opacity="1" transform="matrix(1,0,0,1,16.82699966430664,16.702999114990234)">
                    <path fill="rgb(0,70,183)" fill-opacity="1" d="M0 0"></path>
                </g>
                <g opacity="1" transform="matrix(1,0,0,1,26.83099937438965,18.775999069213867)">
                    <path fill="rgb(0,70,183)" fill-opacity="1" d="M0 0"></path>
                </g>
                <g opacity="1" transform="matrix(1,0,0,1,22.18899917602539,19.878999710083008)">
                    <path fill="rgb(13,90,204)" fill-opacity="1" d="M0 0"></path>
                </g>
                <g opacity="1" transform="matrix(1,0,0,1,18.16900062561035,49.237998962402344)">
                    <path fill="rgb(35,43,132)" fill-opacity="1" d="M0 0"></path>
                </g>
            </g>
            <g transform="matrix(1,0,0,1,285.531005859375,64.60900115966797)" opacity="1" style="display: block;">
                <g opacity="1" transform="matrix(1,0,0,1,28.922000885009766,27.51799964904785)">
                    <path fill="rgb(33,41,126)" fill-opacity="1" d="M0 0"></path>
                </g>
                <g opacity="1" transform="matrix(1,0,0,1,19.332000732421875,55.76599884033203)">
                    <path fill="rgb(33,41,126)" fill-opacity="1" d="M0 0"></path>
                </g>
                <g opacity="1" transform="matrix(1,0,0,1,19.89900016784668,55.672000885009766)">
                    <path fill="rgb(33,41,126)" fill-opacity="1" d="M0 0"></path>
                </g>
                <g opacity="1" transform="matrix(1,0,0,1,20.773000717163086,55.5260009765625)">
                    <path fill="rgb(33,41,126)" fill-opacity="1" d="M0 0"></path>
                </g>
                <g opacity="1" transform="matrix(1,0,0,1,19.464000701904297,55.74300003051758)">
                    <path fill="rgb(33,41,126)" fill-opacity="1" d="M0 0"></path>
                </g>
                <g opacity="1" transform="matrix(1,0,0,1,19.621999740600586,29.06999969482422)">
                    <path fill="rgb(45,48,146)" fill-opacity="1" d="M0 0"></path>
                </g>
                <g opacity="1" transform="matrix(1,0,0,1,19.20599937438965,29.413999557495117)">
                    <path fill="rgb(33,41,126)" fill-opacity="1" d="M0 0"></path>
                </g>
                <g opacity="1" transform="matrix(1,0,0,1,12.762999534606934,18.013999938964844)">
                    <path fill="rgb(0,112,185)" fill-opacity="1" d="M0 0"></path>
                </g>
                <g opacity="1" transform="matrix(1,0,0,1,27.132999420166016,25.525999069213867)">
                    <path fill="rgb(0,112,185)" fill-opacity="1" d="M0 0"></path>
                </g>
                <g opacity="1" transform="matrix(1,0,0,1,11.381999969482422,25.016000747680664)">
                    <path fill="rgb(0,112,185)" fill-opacity="1" d="M0 0"></path>
                </g>
                <g opacity="1" transform="matrix(1,0,0,1,20.75,15.854000091552734)">
                    <path fill="rgb(0,112,185)" fill-opacity="1" d="M0 0"></path>
                </g>
                <g opacity="1" transform="matrix(1,0,0,1,18.31399917602539,24.56999969482422)">
                    <path fill="rgb(0,112,185)" fill-opacity="1" d="M0 0"></path>
                </g>
                <g opacity="1" transform="matrix(1,0,0,1,15.779000282287598,24.082000732421875)">
                    <path fill="rgb(0,112,185)" fill-opacity="1" d="M0 0"></path>
                </g>
                <g opacity="1" transform="matrix(1,0,0,1,8.569999694824219,35.1609992980957)">
                    <path fill="rgb(0,112,185)" fill-opacity="1" d="M0 0"></path>
                </g>
                <g opacity="1" transform="matrix(1,0,0,1,13.677000045776367,39.02799987792969)">
                    <path fill="rgb(0,112,185)" fill-opacity="1" d="M0 0"></path>
                </g>
                <g opacity="1" transform="matrix(1,0,0,1,24.590999603271484,25.485000610351562)">
                    <path fill="rgb(0,112,185)" fill-opacity="1" d="M0 0"></path>
                </g>
                <g opacity="1" transform="matrix(1,0,0,1,28.167999267578125,33.53300094604492)">
                    <path fill="rgb(0,112,185)" fill-opacity="1" d="M0 0"></path>
                </g>
                <g opacity="1" transform="matrix(1,0,0,1,20.020000457763672,31.117000579833984)">
                    <path fill="rgb(0,112,185)" fill-opacity="1" d="M0 0"></path>
                </g>
                <g opacity="1" transform="matrix(1,0,0,1,17.610000610351562,41.32500076293945)">
                    <path fill="rgb(0,112,185)" fill-opacity="1" d="M0 0"></path>
                </g>
                <g opacity="1" transform="matrix(1,0,0,1,24.67799949645996,32.79100036621094)">
                    <path fill="rgb(0,112,185)" fill-opacity="1" d="M0 0"></path>
                </g>
                <g opacity="1" transform="matrix(1,0,0,1,24.61199951171875,42.6619987487793)">
                    <path fill="rgb(0,112,185)" fill-opacity="1" d="M0 0"></path>
                </g>
                <g opacity="1" transform="matrix(1,0,0,1,19.80900001525879,40.17599868774414)">
                    <path fill="rgb(0,112,185)" fill-opacity="1" d="M0 0"></path>
                </g>
                <g opacity="1" transform="matrix(1,0,0,1,22.996999740600586,40.720001220703125)">
                    <path fill="rgb(0,112,185)" fill-opacity="1" d="M0 0"></path>
                </g>
                <g opacity="1" transform="matrix(1,0,0,1,11.159000396728516,39.138999938964844)">
                    <path fill="rgb(0,112,185)" fill-opacity="1" d="M0 0"></path>
                </g>
            </g>
            <g transform="matrix(1,0,0,1,161.58900451660156,77.62899780273438)" opacity="1" style="display: block;">
                <g opacity="1" transform="matrix(1,0,0,1,18.600000381469727,46.750999450683594)">
                    <path fill="rgb(30,36,132)" fill-opacity="1" d="M0 0"></path>
                </g>
                <g opacity="1" transform="matrix(1,0,0,1,17.079999923706055,56.270999908447266)">
                    <path fill="rgb(30,36,132)" fill-opacity="1" d="M0 0"></path>
                </g>
                <g opacity="1" transform="matrix(1,0,0,1,22.368999481201172,13.687000274658203)">
                    <path fill="rgb(30,36,132)" fill-opacity="1" d="M0 0"></path>
                </g>
                <g opacity="1" transform="matrix(1,0,0,1,19.18000030517578,31.194000244140625)">
                    <path fill="rgb(30,36,132)" fill-opacity="1" d="M0 0"></path>
                </g>
                <g opacity="1" transform="matrix(1,0,0,1,15.12399959564209,48.34000015258789)">
                    <path fill="rgb(0,112,185)" fill-opacity="1" d="M0 0"></path>
                </g>
                <g opacity="1" transform="matrix(1,0,0,1,16.16699981689453,32.90700149536133)">
                    <path fill="rgb(0,112,185)" fill-opacity="1" d="M0 0"></path>
                </g>
                <g opacity="1" transform="matrix(1,0,0,1,18.405000686645508,15.218999862670898)">
                    <path fill="rgb(0,112,185)" fill-opacity="1" d="M0 0"></path>
                </g>
            </g>
        </g>
    </g>
</svg>