<?xml version="1.0" encoding="UTF-8"?>
<svg xmlns="http://www.w3.org/2000/svg" xmlns:xlink="http://www.w3.org/1999/xlink" width="195px" height="37px" viewBox="0 0 195 37" version="1.1">
<g id="surface1">
<path style=" stroke:none;fill-rule:nonzero;fill:rgb(96.862745%,98.039216%,98.431373%);fill-opacity:1;" d="M 152.953125 16.441406 C 153.207031 16.476562 153.460938 16.511719 153.71875 16.546875 C 153.953125 16.585938 154.039062 16.621094 154.171875 16.671875 C 154.25 16.679688 154.328125 16.6875 154.410156 16.695312 C 154.75 16.726562 154.832031 16.773438 155.023438 16.835938 C 155.121094 16.851562 155.214844 16.871094 155.316406 16.886719 C 155.648438 16.953125 155.867188 17.015625 156.109375 17.09375 C 156.242188 17.140625 156.242188 17.140625 156.488281 17.183594 C 156.652344 17.242188 156.808594 17.304688 156.960938 17.367188 C 157.023438 17.394531 157.023438 17.394531 157.09375 17.421875 C 157.539062 17.605469 157.957031 17.78125 158.132812 17.980469 C 158.1875 18.039062 158.1875 18.039062 158.316406 18.09375 C 158.472656 18.199219 158.46875 18.292969 158.464844 18.402344 C 158.464844 18.425781 158.46875 18.449219 158.46875 18.472656 C 158.46875 18.546875 158.464844 18.621094 158.464844 18.695312 L 158.464844 18.851562 C 158.464844 18.960938 158.464844 19.070312 158.464844 19.179688 C 158.460938 19.320312 158.460938 19.457031 158.460938 19.59375 C 158.460938 19.703125 158.460938 19.8125 158.457031 19.917969 L 158.457031 20.074219 C 158.457031 20.316406 158.449219 20.554688 158.386719 20.800781 C 158.382812 20.816406 158.378906 20.832031 158.375 20.851562 C 158.210938 21.421875 156.632812 21.925781 154.660156 22.335938 C 154.589844 22.351562 154.519531 22.367188 154.449219 22.382812 C 152.402344 22.800781 149.207031 23.074219 146.222656 23.101562 C 145.546875 23.105469 144.871094 23.101562 144.1875 23.101562 C 143.984375 23.101562 143.78125 23.101562 143.574219 23.101562 C 143.085938 23.101562 142.59375 23.097656 142.101562 23.097656 C 141.953125 23.015625 141.960938 22.9375 141.964844 22.851562 C 141.964844 22.832031 141.964844 22.816406 141.960938 22.796875 C 141.960938 22.761719 141.964844 22.722656 141.964844 22.6875 C 141.964844 22.628906 141.964844 22.574219 141.960938 22.515625 C 141.960938 22.480469 141.964844 22.445312 141.964844 22.410156 C 141.964844 22.390625 141.960938 22.375 141.960938 22.359375 C 141.964844 22.265625 142.003906 22.175781 142.101562 22.082031 C 142.210938 22.082031 142.316406 22.082031 142.429688 22.082031 C 146.863281 22.074219 146.863281 22.074219 150.605469 21.652344 C 151.320312 21.507812 151.945312 21.367188 152.335938 21.179688 L 152.214844 21.132812 L 152.582031 21.132812 L 152.582031 21.066406 C 152.425781 21.066406 152.425781 21.066406 152.265625 21.066406 C 151.28125 21.066406 150.292969 21.066406 149.304688 21.066406 C 148.796875 21.066406 148.292969 21.066406 147.78125 21.066406 C 147.292969 21.070312 146.800781 21.070312 146.308594 21.070312 C 146.121094 21.070312 145.9375 21.070312 145.75 21.070312 C 144.046875 21.070312 142.21875 21.070312 140.609375 20.957031 C 140.519531 20.953125 140.429688 20.945312 140.335938 20.941406 C 136.816406 20.695312 133.925781 20.21875 132.320312 19.574219 C 131.730469 19.328125 131.730469 19.328125 131.730469 19.238281 L 131.488281 19.214844 C 131.441406 19.160156 131.398438 19.105469 131.367188 19.050781 C 131.328125 19.023438 131.285156 18.992188 131.242188 18.960938 C 131.203125 18.921875 131.160156 18.882812 131.121094 18.84375 L 131 18.84375 C 130.914062 18.421875 130.890625 18.039062 131.730469 17.640625 C 131.785156 17.617188 131.785156 17.617188 131.84375 17.589844 C 132.566406 17.253906 133.585938 16.976562 134.902344 16.714844 C 134.976562 16.699219 135.050781 16.683594 135.128906 16.667969 C 139.492188 15.789062 148.046875 15.632812 152.921875 16.4375 Z M 139.546875 17.273438 C 139.433594 17.289062 139.320312 17.304688 139.207031 17.324219 C 139.117188 17.335938 139.027344 17.351562 138.9375 17.367188 L 138.9375 17.414062 L 138.695312 17.414062 C 137.097656 17.753906 136.355469 18.144531 136.355469 18.597656 C 136.351562 18.621094 136.351562 18.648438 136.351562 18.675781 C 136.347656 18.699219 136.347656 18.722656 136.347656 18.75 C 136.347656 18.769531 136.347656 18.792969 136.347656 18.816406 C 136.347656 18.875 136.347656 18.875 136.621094 18.917969 C 136.683594 18.957031 136.738281 18.996094 136.789062 19.035156 C 136.941406 19.148438 137.140625 19.234375 137.472656 19.332031 L 137.71875 19.332031 C 137.894531 19.371094 137.894531 19.371094 138.082031 19.421875 C 138.148438 19.4375 138.207031 19.453125 138.273438 19.46875 C 138.414062 19.507812 138.554688 19.546875 138.691406 19.585938 L 138.9375 19.585938 L 138.9375 19.632812 C 139.847656 19.792969 140.800781 19.886719 141.984375 19.957031 C 142.15625 19.96875 142.15625 19.96875 142.328125 19.976562 C 143.765625 20.0625 145.253906 20.050781 146.742188 20.050781 C 146.902344 20.050781 147.066406 20.050781 147.230469 20.050781 C 147.828125 20.050781 148.421875 20.050781 149.019531 20.050781 C 151.03125 20.050781 151.03125 20.050781 153.066406 20.050781 C 153.128906 19.226562 153.128906 19.226562 153.191406 18.382812 L 153.066406 18.382812 C 153.050781 18.355469 153.035156 18.328125 153.019531 18.296875 C 152.742188 17.878906 151.824219 17.539062 150.066406 17.265625 C 146.972656 16.859375 142.585938 16.84375 139.550781 17.273438 Z M 131.136719 18.128906 L 131.257812 18.175781 Z M 131.136719 18.128906 "/>
<path style=" stroke:none;fill-rule:nonzero;fill:rgb(96.470588%,97.647059%,98.039216%);fill-opacity:1;" d="M 65.691406 15.933594 C 66.167969 15.933594 66.644531 15.933594 67.117188 15.933594 C 68.015625 15.933594 68.921875 15.933594 69.808594 15.933594 C 70.835938 15.9375 71.859375 15.9375 72.882812 15.9375 C 74.988281 15.9375 77.097656 15.9375 79.195312 15.941406 C 79.304688 16.003906 79.332031 16.039062 79.328125 16.105469 L 79.328125 16.160156 C 79.328125 16.183594 79.328125 16.203125 79.328125 16.222656 L 79.328125 16.289062 C 79.324219 16.355469 79.324219 16.421875 79.324219 16.488281 C 79.324219 16.535156 79.324219 16.578125 79.320312 16.625 C 79.320312 16.734375 79.320312 16.847656 79.316406 16.957031 C 79.230469 16.957031 79.148438 16.957031 79.058594 16.957031 C 77 16.960938 74.941406 16.960938 72.894531 16.964844 C 71.898438 16.964844 70.90625 16.964844 69.90625 16.96875 C 69.039062 16.96875 68.175781 16.96875 67.300781 16.96875 C 66.839844 16.96875 66.382812 16.972656 65.921875 16.972656 C 65.488281 16.972656 65.058594 16.972656 64.628906 16.972656 C 64.398438 16.972656 64.164062 16.972656 63.933594 16.972656 C 62.722656 16.976562 61.640625 16.992188 60.664062 17.140625 C 60.425781 17.195312 60.425781 17.195312 60.300781 17.257812 C 60.25 17.277344 60.203125 17.296875 60.15625 17.316406 C 59.996094 17.445312 59.910156 17.597656 60.152344 17.722656 C 60.320312 17.773438 60.496094 17.800781 60.742188 17.835938 C 60.816406 17.847656 60.894531 17.859375 60.972656 17.871094 C 61.816406 17.964844 62.546875 17.984375 63.507812 17.984375 C 63.691406 17.984375 63.691406 17.984375 63.878906 17.984375 C 64.144531 17.984375 64.40625 17.984375 64.671875 17.984375 C 65.089844 17.984375 65.507812 17.984375 65.925781 17.984375 C 67.117188 17.984375 68.300781 17.984375 69.496094 17.984375 C 70.226562 17.984375 70.960938 17.984375 71.691406 17.984375 C 72.101562 17.984375 72.511719 17.984375 72.921875 17.984375 C 75.589844 17.984375 77.832031 18.089844 79.808594 18.460938 C 79.890625 18.492188 79.972656 18.519531 80.050781 18.550781 L 80.417969 18.597656 C 80.496094 18.644531 80.578125 18.691406 80.660156 18.738281 C 80.835938 18.804688 81.019531 18.871094 81.199219 18.9375 C 82.105469 19.300781 82.234375 19.691406 81.53125 20.074219 C 81.160156 20.261719 80.613281 20.414062 79.925781 20.5625 C 79.855469 20.578125 79.792969 20.59375 79.722656 20.609375 C 78.285156 20.910156 76.226562 21.054688 74.144531 21.078125 C 73.695312 21.078125 73.25 21.078125 72.800781 21.078125 L 72.292969 21.078125 C 71.839844 21.078125 71.382812 21.078125 70.925781 21.078125 C 70.449219 21.078125 69.972656 21.078125 69.488281 21.078125 C 68.589844 21.078125 67.6875 21.078125 66.785156 21.074219 C 65.757812 21.074219 64.722656 21.074219 63.699219 21.074219 C 61.59375 21.074219 59.484375 21.074219 57.363281 21.074219 C 57.09375 20.980469 57.085938 20.902344 57.089844 20.796875 L 57.089844 20.746094 C 57.089844 20.707031 57.09375 20.671875 57.09375 20.632812 C 57.097656 20.578125 57.097656 20.519531 57.097656 20.464844 C 57.097656 20.425781 57.097656 20.390625 57.097656 20.355469 L 57.097656 20.304688 C 57.101562 20.21875 57.144531 20.140625 57.242188 20.054688 C 57.324219 20.054688 57.40625 20.054688 57.496094 20.054688 C 59.53125 20.050781 61.578125 20.050781 63.613281 20.046875 C 64.601562 20.046875 65.585938 20.046875 66.574219 20.042969 C 67.433594 20.042969 68.292969 20.042969 69.15625 20.042969 C 69.613281 20.042969 70.066406 20.039062 70.523438 20.039062 C 71.03125 20.039062 71.539062 20.039062 72.046875 20.039062 L 72.5 20.039062 C 73.9375 20.035156 75.132812 20.011719 76.179688 19.8125 C 76.527344 19.664062 76.613281 19.5 76.402344 19.339844 C 76.101562 19.207031 75.722656 19.140625 75.046875 19.082031 C 74.613281 19.046875 74.226562 19.035156 73.757812 19.035156 C 73.597656 19.035156 73.597656 19.035156 73.433594 19.035156 L 73.082031 19.035156 C 72.960938 19.035156 72.839844 19.035156 72.714844 19.035156 C 72.445312 19.035156 72.179688 19.035156 71.914062 19.03125 C 71.492188 19.03125 71.070312 19.03125 70.644531 19.03125 C 69.445312 19.03125 68.246094 19.03125 67.039062 19.027344 C 66.304688 19.027344 65.574219 19.027344 64.832031 19.027344 C 64.554688 19.027344 64.273438 19.027344 63.996094 19.027344 C 62.167969 19.023438 60.582031 19.015625 58.925781 18.851562 C 58.832031 18.84375 58.734375 18.835938 58.636719 18.824219 C 56.917969 18.648438 55.652344 18.34375 55.003906 17.996094 C 54.914062 17.949219 54.914062 17.949219 54.664062 17.90625 C 54.148438 17.445312 54.578125 17.011719 55.882812 16.609375 C 56.277344 16.507812 56.742188 16.421875 57.222656 16.332031 C 57.324219 16.3125 57.324219 16.3125 57.425781 16.292969 C 57.878906 16.207031 58.425781 16.152344 58.976562 16.097656 C 59.046875 16.089844 59.121094 16.082031 59.199219 16.074219 C 61.160156 15.886719 63.511719 15.929688 65.632812 15.933594 Z M 65.691406 15.933594 "/>
<path style=" stroke:none;fill-rule:nonzero;fill:rgb(96.862745%,98.039216%,98.431373%);fill-opacity:1;" d="M 116.632812 15.933594 C 116.71875 15.933594 116.804688 15.933594 116.890625 15.9375 C 119.828125 15.96875 122.703125 16.183594 124.921875 16.558594 L 125.046875 16.605469 L 125.289062 16.648438 C 125.984375 16.78125 126.496094 16.914062 127.019531 17.070312 C 127.234375 17.136719 127.234375 17.136719 127.496094 17.195312 C 127.710938 17.246094 127.84375 17.289062 127.972656 17.347656 C 128.011719 17.367188 128.054688 17.382812 128.09375 17.402344 C 128.132812 17.421875 128.175781 17.441406 128.214844 17.457031 C 128.300781 17.492188 128.382812 17.53125 128.46875 17.566406 C 128.507812 17.582031 128.546875 17.601562 128.589844 17.617188 C 128.691406 17.660156 128.796875 17.703125 128.902344 17.746094 C 129.464844 18.019531 129.453125 18.328125 129.449219 18.621094 L 129.449219 18.703125 C 129.449219 18.789062 129.449219 18.875 129.445312 18.960938 C 129.445312 19.023438 129.445312 19.085938 129.445312 19.144531 C 129.445312 19.289062 129.445312 19.433594 129.445312 19.574219 C 129.441406 19.738281 129.441406 19.902344 129.441406 20.0625 C 129.441406 20.398438 129.4375 20.734375 129.433594 21.066406 C 127.59375 21.066406 125.753906 21.070312 123.925781 21.070312 C 123.074219 21.070312 122.21875 21.070312 121.367188 21.070312 C 120.542969 21.070312 119.722656 21.070312 118.894531 21.070312 C 118.578125 21.070312 118.265625 21.070312 117.953125 21.070312 C 113.457031 21.074219 113.457031 21.074219 111.714844 20.960938 C 111.621094 20.957031 111.523438 20.949219 111.429688 20.945312 C 109.601562 20.824219 107.964844 20.640625 106.527344 20.398438 C 106.425781 20.378906 106.328125 20.363281 106.222656 20.347656 C 104.882812 20.105469 103.601562 19.757812 102.992188 19.425781 L 102.992188 19.355469 L 102.75 19.332031 C 102.671875 19.269531 102.671875 19.269531 102.613281 19.191406 C 102.59375 19.167969 102.570312 19.140625 102.550781 19.117188 C 102.527344 19.085938 102.527344 19.085938 102.503906 19.054688 L 102.261719 19.054688 L 102.382812 18.917969 L 102.140625 18.917969 C 102.144531 18.871094 102.148438 18.820312 102.152344 18.773438 C 102.164062 18.730469 102.164062 18.730469 102.019531 18.707031 C 101.894531 18.34375 102.078125 17.957031 102.871094 17.621094 C 102.902344 17.605469 102.9375 17.59375 102.972656 17.578125 C 104.59375 16.867188 107.382812 16.363281 111.160156 16.074219 C 112.890625 15.949219 114.804688 15.914062 116.644531 15.933594 Z M 109.457031 17.472656 C 108.054688 17.789062 107.445312 18.15625 107.445312 18.566406 C 107.445312 18.589844 107.445312 18.613281 107.445312 18.640625 C 107.460938 18.847656 107.59375 19.039062 108.222656 19.21875 L 108.34375 19.195312 C 108.355469 19.21875 108.355469 19.21875 108.367188 19.246094 C 108.5 19.332031 108.726562 19.363281 109.074219 19.425781 C 109.207031 19.453125 109.339844 19.484375 109.472656 19.511719 C 110.589844 19.757812 111.714844 19.886719 113.335938 19.972656 C 113.46875 19.980469 113.46875 19.980469 113.601562 19.988281 C 114.945312 20.058594 116.320312 20.050781 117.699219 20.050781 C 117.878906 20.050781 118.058594 20.050781 118.242188 20.050781 C 118.617188 20.050781 118.992188 20.050781 119.367188 20.050781 C 119.851562 20.050781 120.332031 20.050781 120.816406 20.050781 C 121.191406 20.050781 121.5625 20.050781 121.933594 20.050781 C 122.113281 20.050781 122.289062 20.050781 122.46875 20.050781 C 122.714844 20.050781 122.964844 20.050781 123.210938 20.050781 L 123.636719 20.050781 C 123.945312 20.054688 123.945312 20.054688 124.074219 20.023438 C 124.085938 19.980469 124.089844 19.9375 124.089844 19.890625 C 124.089844 19.863281 124.09375 19.832031 124.09375 19.804688 C 124.09375 19.773438 124.09375 19.738281 124.089844 19.707031 C 124.089844 19.675781 124.089844 19.644531 124.09375 19.609375 C 124.09375 19.539062 124.09375 19.472656 124.089844 19.402344 C 124.089844 19.316406 124.089844 19.226562 124.089844 19.140625 C 124.292969 18.546875 124.292969 18.546875 123.585938 17.988281 C 123.574219 17.96875 123.5625 17.949219 123.550781 17.925781 C 123.222656 17.636719 121.78125 17.371094 120.550781 17.203125 C 117.003906 16.78125 112.335938 16.902344 109.460938 17.46875 Z M 124.082031 18.40625 L 124.082031 18.523438 L 124.203125 18.523438 L 124.203125 18.40625 Z M 124.082031 18.40625 "/>
<path style=" stroke:none;fill-rule:nonzero;fill:rgb(96.470588%,97.647059%,98.039216%);fill-opacity:1;" d="M 180.742188 15.933594 C 183.910156 15.917969 187.078125 16.085938 189.550781 16.46875 C 189.757812 16.507812 189.960938 16.546875 190.160156 16.585938 C 190.429688 16.636719 190.695312 16.6875 190.960938 16.738281 C 191.03125 16.753906 191.097656 16.765625 191.171875 16.78125 C 191.238281 16.792969 191.304688 16.804688 191.375 16.820312 C 191.433594 16.832031 191.492188 16.84375 191.554688 16.855469 C 191.738281 16.886719 191.738281 16.886719 191.992188 16.902344 C 192.234375 16.933594 192.234375 16.933594 192.597656 17.09375 L 189.066406 17.765625 C 188.53125 17.675781 188.054688 17.597656 187.578125 17.5 C 185.921875 17.183594 183.910156 17.007812 181.53125 16.976562 C 179.253906 16.976562 177 17.113281 175.316406 17.410156 C 173.609375 17.746094 172.929688 18.132812 172.941406 18.589844 C 172.964844 18.820312 173.125 19.042969 173.707031 19.246094 L 173.953125 19.246094 C 174.21875 19.3125 174.421875 19.371094 174.5625 19.453125 C 175.539062 19.652344 176.609375 19.824219 177.972656 19.914062 C 178.101562 19.925781 178.234375 19.933594 178.367188 19.941406 C 180.632812 20.082031 183.179688 20.042969 185.3125 19.847656 C 186.738281 19.707031 187.835938 19.460938 188.945312 19.246094 C 189.664062 19.359375 190.347656 19.480469 191.003906 19.605469 C 191.128906 19.625 191.253906 19.648438 191.378906 19.671875 C 191.5625 19.707031 191.738281 19.738281 191.921875 19.773438 C 192.027344 19.792969 192.132812 19.8125 192.246094 19.832031 C 192.476562 19.890625 192.476562 19.890625 192.535156 19.964844 C 192.46875 20.042969 192.375 20.066406 192.078125 20.121094 C 191.992188 20.136719 191.90625 20.15625 191.820312 20.171875 C 191.726562 20.1875 191.636719 20.203125 191.539062 20.222656 C 191.445312 20.238281 191.351562 20.257812 191.253906 20.273438 C 189.621094 20.570312 187.902344 20.785156 185.769531 20.933594 C 185.640625 20.941406 185.507812 20.953125 185.375 20.960938 C 182.023438 21.175781 178.246094 21.097656 175.074219 20.8125 C 174.082031 20.71875 173.199219 20.613281 172.371094 20.472656 C 172.269531 20.457031 172.167969 20.441406 172.066406 20.421875 C 170.617188 20.1875 169.542969 19.902344 168.726562 19.574219 C 168.691406 19.558594 168.652344 19.546875 168.617188 19.53125 C 168.40625 19.445312 168.28125 19.363281 168.222656 19.269531 L 167.980469 19.269531 C 167.914062 19.175781 167.855469 19.085938 167.855469 18.992188 L 167.613281 18.96875 C 167.40625 18.851562 167.46875 18.722656 167.46875 18.597656 C 167.46875 18.550781 167.46875 18.5 167.464844 18.453125 C 167.460938 18.285156 167.492188 18.132812 167.734375 17.972656 C 167.777344 17.941406 167.816406 17.910156 167.859375 17.878906 C 168.375 17.515625 169.234375 17.210938 170.417969 16.910156 C 170.503906 16.886719 170.589844 16.867188 170.679688 16.84375 C 170.753906 16.828125 170.828125 16.808594 170.90625 16.792969 L 171.148438 16.792969 C 171.179688 16.78125 171.207031 16.765625 171.234375 16.753906 C 172.386719 16.367188 175.527344 16.128906 177.621094 16.015625 C 178.648438 15.960938 179.667969 15.945312 180.730469 15.933594 Z M 180.742188 15.933594 "/>
<path style=" stroke:none;fill-rule:nonzero;fill:rgb(96.862745%,98.039216%,98.431373%);fill-opacity:1;" d="M 84.703125 13.867188 L 85.011719 13.867188 C 85.167969 13.867188 85.167969 13.867188 85.328125 13.867188 C 85.546875 13.867188 85.769531 13.867188 85.988281 13.867188 C 86.328125 13.867188 86.664062 13.867188 87.003906 13.867188 L 87.644531 13.867188 C 87.746094 13.867188 87.847656 13.867188 87.953125 13.867188 C 88.65625 13.867188 88.65625 13.867188 88.921875 13.902344 C 89.125 13.957031 89.125 13.988281 89.121094 14.054688 C 89.121094 14.078125 89.121094 14.097656 89.125 14.121094 C 89.121094 14.148438 89.121094 14.171875 89.117188 14.199219 L 89.117188 14.277344 C 89.117188 14.363281 89.113281 14.449219 89.109375 14.535156 C 89.109375 14.597656 89.109375 14.65625 89.109375 14.71875 C 89.105469 14.859375 89.101562 15.003906 89.097656 15.148438 C 89.089844 15.417969 89.085938 15.6875 89.082031 15.960938 L 89.074219 16.226562 C 89.074219 16.28125 89.074219 16.335938 89.070312 16.390625 C 89.070312 16.414062 89.070312 16.4375 89.066406 16.464844 C 89.066406 16.636719 89.128906 16.800781 89.199219 16.976562 L 100.167969 16.976562 L 100.167969 17.945312 C 99.917969 17.992188 99.382812 17.972656 99.039062 17.972656 C 98.933594 17.972656 98.824219 17.972656 98.71875 17.972656 C 98.367188 17.976562 98.015625 17.976562 97.664062 17.976562 C 97.417969 17.976562 97.175781 17.976562 96.933594 17.976562 C 96.292969 17.980469 95.65625 17.980469 95.007812 17.980469 C 94.355469 17.984375 93.703125 17.984375 93.046875 17.984375 C 91.765625 17.988281 90.476562 17.988281 89.195312 17.992188 C 89.1875 18.089844 89.1875 18.183594 89.183594 18.28125 C 89.179688 18.3125 89.179688 18.347656 89.175781 18.378906 C 89.160156 18.65625 89.164062 18.941406 89.804688 19.195312 C 89.925781 19.199219 90.046875 19.207031 90.171875 19.214844 C 90.179688 19.238281 90.191406 19.261719 90.199219 19.285156 C 90.230469 19.308594 90.261719 19.332031 90.292969 19.355469 C 90.367188 19.363281 90.441406 19.371094 90.515625 19.375 C 90.859375 19.410156 90.992188 19.449219 91.214844 19.507812 C 92.410156 19.800781 94.152344 19.9375 96.015625 20.003906 C 96.734375 20.019531 97.453125 20.023438 98.1875 20.03125 C 98.378906 20.03125 98.574219 20.035156 98.765625 20.035156 C 99.234375 20.042969 99.699219 20.046875 100.167969 20.050781 C 100.148438 20.066406 100.125 20.085938 100.105469 20.101562 C 100.023438 20.1875 100.0625 20.265625 100.097656 20.351562 C 100.15625 20.515625 100.179688 20.675781 100.183594 20.835938 C 100.183594 20.859375 100.183594 20.878906 100.183594 20.898438 C 100.183594 21.042969 100.183594 21.042969 100.042969 21.066406 C 95.828125 21.117188 91.929688 20.992188 88.636719 20.460938 C 88.332031 20.410156 88.035156 20.359375 87.742188 20.304688 C 87.628906 20.285156 87.628906 20.285156 87.511719 20.265625 C 86.523438 20.089844 85.832031 19.863281 85.1875 19.640625 C 85.140625 19.625 85.09375 19.609375 85.046875 19.59375 C 84.765625 19.492188 84.605469 19.394531 84.503906 19.28125 C 84.484375 19.269531 84.464844 19.253906 84.445312 19.242188 L 84.203125 19.21875 C 83.929688 19.140625 83.914062 19.066406 83.890625 18.972656 C 83.875 18.871094 83.875 18.871094 83.714844 18.78125 C 83.703125 18.714844 83.699219 18.652344 83.699219 18.589844 C 83.699219 18.570312 83.699219 18.550781 83.699219 18.53125 L 83.699219 18.328125 C 83.699219 18.28125 83.695312 18.234375 83.695312 18.1875 C 83.695312 18.054688 83.695312 17.925781 83.695312 17.792969 C 83.695312 17.6875 83.695312 17.578125 83.695312 17.46875 C 83.691406 17.214844 83.691406 16.957031 83.691406 16.699219 C 83.691406 16.4375 83.691406 16.175781 83.6875 15.90625 C 83.6875 15.679688 83.6875 15.453125 83.6875 15.226562 C 83.6875 15.09375 83.6875 14.957031 83.683594 14.820312 C 83.683594 14.695312 83.683594 14.566406 83.683594 14.441406 C 83.683594 14.390625 83.683594 14.347656 83.683594 14.300781 C 83.683594 14.234375 83.683594 14.171875 83.683594 14.109375 C 83.683594 14.089844 83.683594 14.070312 83.683594 14.050781 C 83.6875 13.890625 83.855469 13.867188 84.703125 13.863281 Z M 84.082031 19.070312 L 84.203125 19.117188 Z M 84.082031 19.070312 "/>
<path style=" stroke:none;fill-rule:nonzero;fill:rgb(95.686275%,96.862745%,97.254902%);fill-opacity:1;" d="M 36.320312 16.972656 C 36.398438 16.988281 36.476562 17 36.554688 17.015625 L 36.554688 17.0625 C 36.625 17.0625 36.695312 17.066406 36.769531 17.066406 C 37.125 17.089844 37.28125 17.125 37.53125 17.175781 L 37.898438 17.246094 C 38.019531 17.269531 38.019531 17.269531 38.140625 17.292969 C 38.382812 17.339844 38.382812 17.339844 38.582031 17.390625 C 38.734375 17.433594 38.734375 17.433594 38.992188 17.457031 C 39.019531 17.476562 39.019531 17.476562 39.046875 17.5 C 39.09375 17.550781 39.09375 17.550781 39.289062 17.582031 C 39.605469 17.640625 39.769531 17.71875 39.960938 17.792969 C 40 17.8125 40.042969 17.828125 40.085938 17.84375 C 40.167969 17.875 40.25 17.90625 40.332031 17.9375 C 40.414062 17.972656 40.5 18.003906 40.589844 18.035156 C 40.828125 18.125 41.015625 18.207031 41.140625 18.304688 C 41.222656 18.367188 41.304688 18.425781 41.433594 18.484375 C 42.652344 19.078125 41.710938 19.871094 40.429688 20.433594 C 40.128906 20.558594 39.808594 20.6875 39.480469 20.808594 C 39.378906 20.742188 39.34375 20.683594 39.347656 20.613281 C 39.351562 20.589844 39.351562 20.570312 39.351562 20.550781 C 39.351562 20.515625 39.351562 20.515625 39.355469 20.484375 C 39.355469 20.4375 39.359375 20.390625 39.359375 20.34375 C 39.363281 20.269531 39.367188 20.199219 39.371094 20.125 C 39.375 20.054688 39.375 19.984375 39.378906 19.914062 C 39.382812 19.878906 39.382812 19.878906 39.382812 19.847656 C 39.386719 19.730469 39.324219 19.644531 39.117188 19.539062 L 39.238281 19.46875 L 38.992188 19.445312 C 38.945312 19.410156 38.90625 19.378906 38.871094 19.34375 C 38.023438 18.722656 35.410156 18.210938 32.59375 17.894531 C 29.21875 17.527344 25.417969 17.46875 21.6875 17.644531 C 18.824219 17.796875 16.363281 18.132812 14.496094 18.566406 C 14.21875 18.40625 14.789062 18.238281 15.167969 18.097656 C 15.46875 17.996094 15.832031 17.902344 16.203125 17.808594 C 16.3125 17.78125 16.3125 17.78125 16.425781 17.753906 C 17.238281 17.546875 17.238281 17.546875 17.667969 17.457031 L 17.910156 17.457031 C 17.953125 17.4375 17.953125 17.4375 18 17.417969 C 19.316406 16.972656 22.996094 16.707031 25.410156 16.570312 C 29.078125 16.378906 33.269531 16.5625 36.328125 16.976562 Z M 39.488281 19.863281 L 39.609375 19.957031 Z M 39.488281 19.863281 "/>
<path style=" stroke:none;fill-rule:nonzero;fill:rgb(96.470588%,97.647059%,98.039216%);fill-opacity:1;" d="M 4.875 16.535156 C 5.035156 16.632812 4.929688 16.71875 4.820312 16.816406 C 4.792969 16.84375 4.792969 16.84375 4.769531 16.867188 C 4.722656 16.910156 4.675781 16.953125 4.632812 16.996094 L 4.386719 16.996094 C 4.402344 17.074219 4.417969 17.15625 4.433594 17.234375 C 4.4375 17.257812 4.441406 17.277344 4.445312 17.300781 C 4.449219 17.324219 4.453125 17.347656 4.460938 17.367188 C 4.464844 17.398438 4.464844 17.398438 4.46875 17.429688 C 4.492188 17.488281 4.492188 17.488281 4.753906 17.550781 C 4.785156 17.597656 4.816406 17.648438 4.839844 17.695312 C 4.878906 17.765625 4.933594 17.835938 4.988281 17.90625 C 5.007812 17.929688 5.027344 17.953125 5.046875 17.976562 C 5.09375 18.039062 5.09375 18.039062 5.363281 18.082031 C 5.425781 18.117188 5.480469 18.15625 5.53125 18.191406 C 5.707031 18.308594 5.941406 18.402344 6.421875 18.488281 C 6.640625 18.535156 6.660156 18.578125 6.703125 18.636719 C 6.824219 18.644531 6.945312 18.652344 7.070312 18.660156 C 7.207031 18.707031 7.207031 18.707031 7.3125 18.753906 C 7.488281 18.820312 7.761719 18.863281 8.042969 18.914062 C 8.140625 18.933594 8.238281 18.953125 8.335938 18.972656 C 10.152344 19.335938 12.445312 19.59375 14.992188 19.726562 C 15.132812 19.730469 15.273438 19.738281 15.417969 19.746094 C 19.027344 19.90625 22.914062 19.78125 26.058594 19.410156 C 27.300781 19.257812 28.347656 19.070312 29.375 18.867188 C 29.535156 18.835938 29.699219 18.804688 29.859375 18.777344 C 29.917969 18.917969 29.753906 19 29.402344 19.121094 C 29.355469 19.136719 29.304688 19.152344 29.257812 19.171875 C 28.324219 19.484375 27.183594 19.769531 25.84375 20.023438 L 25.546875 20.082031 C 22.582031 20.613281 18.855469 20.855469 14.820312 20.84375 C 11.382812 20.820312 8.164062 20.488281 5.8125 20.023438 C 4.625 19.769531 3.535156 19.460938 3.179688 19.121094 L 2.9375 19.097656 C 3 19.074219 3 19.074219 3.058594 19.050781 L 2.816406 19.050781 C 2.800781 19.027344 2.785156 19.003906 2.769531 18.980469 C 2.6875 18.882812 2.5625 18.792969 2.328125 18.707031 C 2.050781 18.410156 2.167969 18.097656 2.367188 17.804688 C 2.378906 17.78125 2.394531 17.757812 2.410156 17.738281 C 2.507812 17.597656 2.683594 17.472656 2.9375 17.339844 C 2.996094 17.308594 3.050781 17.277344 3.105469 17.246094 C 4.007812 16.742188 4.007812 16.742188 4.765625 16.601562 L 4.886719 16.53125 Z M 2.316406 18.40625 L 2.4375 18.476562 Z M 6.214844 18.5 L 6.335938 18.546875 Z M 2.4375 18.640625 L 2.558594 18.707031 Z M 2.4375 18.640625 "/>
<path style=" stroke:none;fill-rule:nonzero;fill:rgb(96.862745%,98.039216%,98.431373%);fill-opacity:1;" d="M 160.386719 15.933594 L 165.628906 15.933594 L 165.628906 21.066406 L 160.386719 21.066406 C 160.074219 20.976562 160.109375 20.902344 160.113281 20.800781 C 160.113281 20.78125 160.113281 20.761719 160.113281 20.738281 C 160.109375 20.671875 160.109375 20.601562 160.113281 20.53125 C 160.113281 20.484375 160.109375 20.433594 160.109375 20.386719 C 160.109375 20.253906 160.109375 20.117188 160.109375 19.984375 C 160.113281 19.847656 160.109375 19.707031 160.109375 19.566406 C 160.109375 19.332031 160.109375 19.097656 160.113281 18.863281 C 160.113281 18.59375 160.113281 18.320312 160.113281 18.050781 C 160.109375 17.816406 160.109375 17.585938 160.109375 17.351562 L 160.109375 16.9375 C 160.109375 16.804688 160.109375 16.675781 160.113281 16.542969 C 160.113281 16.496094 160.113281 16.445312 160.109375 16.398438 C 160.109375 16.332031 160.113281 16.265625 160.113281 16.203125 C 160.113281 16.183594 160.113281 16.164062 160.109375 16.144531 C 160.113281 16.054688 160.121094 16.011719 160.386719 15.933594 Z M 160.386719 15.933594 "/>
<path style=" stroke:none;fill-rule:nonzero;fill:rgb(0.784314%,0.784314%,1.176471%);fill-opacity:1;" d="M 75.929688 19.863281 L 76.050781 19.910156 C 75.359375 20.050781 74.910156 20.101562 73.90625 20.109375 C 73.792969 20.109375 73.683594 20.109375 73.570312 20.113281 C 73.457031 20.113281 73.339844 20.113281 73.226562 20.113281 C 72.945312 20.117188 72.667969 20.117188 72.386719 20.117188 L 72.386719 20.140625 L 57.273438 20.140625 L 57.273438 20.050781 C 57.359375 20.050781 57.441406 20.050781 57.527344 20.050781 C 59.5625 20.046875 61.613281 20.046875 63.648438 20.042969 C 64.632812 20.042969 65.621094 20.039062 66.609375 20.039062 C 67.46875 20.039062 68.328125 20.039062 69.191406 20.035156 C 69.648438 20.035156 70.101562 20.035156 70.558594 20.035156 C 71.066406 20.035156 71.574219 20.035156 72.082031 20.035156 C 72.230469 20.035156 72.378906 20.035156 72.535156 20.035156 C 74.09375 20.03125 74.09375 20.03125 75.507812 19.917969 C 75.589844 19.910156 75.667969 19.898438 75.75 19.886719 C 75.804688 19.878906 75.859375 19.871094 75.917969 19.863281 Z M 75.929688 19.863281 "/>
<path style=" stroke:none;fill-rule:nonzero;fill:rgb(0.392157%,0.784314%,1.176471%);fill-opacity:1;" d="M 137.597656 19.308594 C 137.996094 19.382812 138.351562 19.457031 138.695312 19.539062 L 138.695312 19.585938 L 138.9375 19.585938 L 138.9375 19.632812 C 139.007812 19.640625 139.078125 19.644531 139.148438 19.652344 C 139.445312 19.679688 139.691406 19.71875 139.957031 19.757812 C 140.699219 19.855469 141.496094 19.90625 142.347656 19.957031 C 142.4375 19.960938 142.527344 19.96875 142.621094 19.972656 C 143.9375 20.042969 145.375 20.03125 146.742188 20.035156 C 146.925781 20.035156 147.109375 20.035156 147.292969 20.035156 C 147.769531 20.035156 148.25 20.039062 148.730469 20.039062 C 149.21875 20.039062 149.710938 20.042969 150.203125 20.042969 C 151.164062 20.042969 152.117188 20.046875 153.082031 20.050781 L 153.082031 20.117188 C 152.503906 20.148438 151.945312 20.144531 151.351562 20.144531 C 151.183594 20.144531 151.183594 20.144531 151.015625 20.144531 C 150.65625 20.144531 150.296875 20.144531 149.9375 20.144531 L 149.570312 20.144531 C 147.949219 20.144531 146.339844 20.140625 144.71875 20.125 C 144.480469 20.121094 144.480469 20.121094 144.238281 20.121094 C 141.777344 20.089844 139.816406 19.871094 138.195312 19.527344 C 137.589844 19.386719 137.589844 19.386719 137.589844 19.308594 Z M 137.597656 19.308594 "/>
<path style=" stroke:none;fill-rule:nonzero;fill:rgb(0%,0%,0.784314%);fill-opacity:1;" d="M 108.710938 19.332031 C 109.027344 19.390625 109.316406 19.449219 109.597656 19.511719 C 110.671875 19.746094 111.777344 19.867188 113.335938 19.949219 C 113.425781 19.953125 113.515625 19.960938 113.605469 19.964844 C 114.957031 20.035156 116.335938 20.027344 117.726562 20.027344 C 117.910156 20.027344 118.09375 20.027344 118.277344 20.027344 C 118.757812 20.027344 119.234375 20.027344 119.714844 20.027344 C 120.207031 20.027344 120.699219 20.027344 121.191406 20.027344 C 122.148438 20.027344 123.117188 20.027344 124.066406 20.023438 L 124.066406 20.117188 C 122.042969 20.140625 120.03125 20.140625 117.996094 20.132812 C 117.886719 20.132812 117.78125 20.132812 117.667969 20.132812 C 115.0625 20.121094 112.648438 20.097656 110.527344 19.773438 C 110.421875 19.753906 110.3125 19.738281 110.203125 19.722656 C 109.585938 19.621094 109.039062 19.519531 108.703125 19.378906 L 108.703125 19.332031 Z M 108.710938 19.332031 "/>
<path style=" stroke:none;fill-rule:nonzero;fill:rgb(0%,0%,0.392157%);fill-opacity:1;" d="M 28.03125 19.125 C 28.03125 19.195312 28.03125 19.195312 27.855469 19.230469 C 26.222656 19.496094 26.222656 19.496094 25.589844 19.496094 L 25.589844 19.539062 C 24.847656 19.625 24.140625 19.691406 23.3125 19.734375 C 23.027344 19.75 23.027344 19.75 22.753906 19.769531 C 21.523438 19.863281 20.289062 19.875 18.988281 19.875 C 18.710938 19.875 18.433594 19.875 18.160156 19.875 C 16.746094 19.875 15.476562 19.835938 14.136719 19.75 C 14.035156 19.742188 13.929688 19.738281 13.824219 19.734375 C 12.964844 19.6875 12.238281 19.613281 11.484375 19.527344 C 11.382812 19.515625 11.285156 19.503906 11.183594 19.492188 C 10.65625 19.429688 10.65625 19.429688 10.476562 19.402344 L 10.476562 19.355469 C 10.941406 19.386719 11.355469 19.429688 11.78125 19.472656 C 12.824219 19.582031 13.828125 19.667969 14.988281 19.726562 C 15.199219 19.738281 15.199219 19.738281 15.414062 19.75 C 19.035156 19.90625 22.898438 19.78125 26.054688 19.414062 C 26.757812 19.328125 27.40625 19.230469 28.027344 19.125 Z M 28.03125 19.125 "/>
<path style=" stroke:none;fill-rule:nonzero;fill:rgb(1.176471%,1.176471%,1.568627%);fill-opacity:1;" d="M 151.855469 21.367188 C 151.914062 21.390625 151.914062 21.390625 151.976562 21.414062 C 150.867188 21.773438 149.136719 22.035156 147.042969 22.15625 C 146.367188 22.1875 145.6875 22.1875 144.996094 22.191406 C 144.800781 22.191406 144.800781 22.191406 144.601562 22.195312 C 143.769531 22.199219 142.945312 22.203125 142.101562 22.199219 L 142.101562 22.085938 C 142.210938 22.085938 142.316406 22.085938 142.429688 22.085938 C 146.851562 22.074219 146.851562 22.074219 150.59375 21.652344 C 151.042969 21.5625 151.453125 21.46875 151.851562 21.367188 Z M 151.855469 21.367188 "/>
<path style=" stroke:none;fill-rule:nonzero;fill:rgb(0%,0%,0.392157%);fill-opacity:1;" d="M 61.058594 17.898438 C 61.132812 17.902344 61.207031 17.910156 61.28125 17.914062 C 62.058594 17.960938 62.742188 17.976562 63.558594 17.976562 C 63.683594 17.976562 63.804688 17.976562 63.929688 17.976562 C 64.191406 17.976562 64.457031 17.976562 64.71875 17.976562 C 65.136719 17.976562 65.554688 17.976562 65.972656 17.976562 C 67.160156 17.976562 68.351562 17.976562 69.53125 17.976562 C 70.257812 17.976562 70.996094 17.980469 71.714844 17.980469 C 72.121094 17.980469 72.53125 17.980469 72.945312 17.980469 C 75.273438 17.980469 77.441406 18.042969 79.210938 18.359375 L 78.964844 18.382812 C 78.871094 18.371094 78.777344 18.359375 78.683594 18.347656 C 77.773438 18.230469 76.890625 18.144531 75.820312 18.097656 C 75.550781 18.082031 75.550781 18.082031 75.304688 18.0625 C 75.132812 18.058594 74.960938 18.058594 74.789062 18.058594 C 74.625 18.058594 74.625 18.058594 74.457031 18.058594 L 74.09375 18.058594 C 73.96875 18.058594 73.839844 18.054688 73.710938 18.054688 C 73.4375 18.054688 73.164062 18.054688 72.886719 18.054688 C 72.453125 18.054688 72.019531 18.054688 71.585938 18.054688 C 70.355469 18.050781 69.109375 18.050781 67.878906 18.050781 C 67.125 18.050781 66.367188 18.046875 65.613281 18.046875 C 65.324219 18.046875 65.039062 18.046875 64.75 18.046875 C 64.347656 18.046875 63.945312 18.046875 63.539062 18.042969 L 63.179688 18.042969 C 62.445312 18.042969 61.816406 18.039062 61.242188 17.941406 C 61.175781 17.929688 61.113281 17.914062 61.042969 17.898438 Z M 61.058594 17.898438 "/>
<path style=" stroke:none;fill-rule:nonzero;fill:rgb(0%,0%,0.392157%);fill-opacity:1;" d="M 188.296875 19.355469 C 188.296875 19.453125 188.078125 19.476562 187.734375 19.542969 C 185.84375 19.898438 184.027344 20.101562 181.296875 20.109375 C 178.957031 20.105469 177.09375 19.992188 175.375 19.679688 L 175.375 19.632812 C 175.722656 19.664062 175.996094 19.699219 176.289062 19.746094 C 176.90625 19.835938 177.570312 19.886719 178.300781 19.933594 C 178.40625 19.941406 178.511719 19.949219 178.621094 19.957031 C 180.851562 20.089844 183.460938 20.023438 185.519531 19.820312 C 186.59375 19.703125 187.445312 19.523438 188.296875 19.355469 Z M 188.296875 19.355469 "/>
<path style=" stroke:none;fill-rule:nonzero;fill:rgb(0%,0%,0.392157%);fill-opacity:1;" d="M 90.429688 19.355469 C 90.765625 19.417969 91.074219 19.476562 91.359375 19.546875 C 92.628906 19.828125 94.625 19.980469 96.539062 20.011719 C 97.089844 20.019531 97.644531 20.023438 98.195312 20.03125 C 98.390625 20.03125 98.582031 20.035156 98.777344 20.035156 C 99.242188 20.039062 99.710938 20.042969 100.175781 20.050781 L 100.175781 20.140625 C 97.035156 20.128906 94.449219 20.105469 91.890625 19.726562 C 91.785156 19.710938 91.679688 19.695312 91.570312 19.683594 C 91.042969 19.59375 90.558594 19.488281 90.425781 19.355469 Z M 90.429688 19.355469 "/>
<path style=" stroke:none;fill-rule:nonzero;fill:rgb(0.392157%,0.392157%,0.784314%);fill-opacity:1;" d="M 10.480469 19.355469 C 10.941406 19.386719 11.359375 19.429688 11.785156 19.472656 C 13.359375 19.636719 14.929688 19.734375 16.695312 19.796875 C 16.222656 19.84375 16.011719 19.839844 15.476562 19.820312 C 15.382812 19.816406 15.289062 19.8125 15.191406 19.808594 C 14.550781 19.789062 14 19.757812 13.410156 19.703125 C 13.28125 19.691406 13.148438 19.683594 13.015625 19.671875 C 12.136719 19.601562 11.246094 19.511719 10.480469 19.402344 Z M 10.480469 19.355469 "/>
<path style=" stroke:none;fill-rule:nonzero;fill:rgb(0.392157%,0.784314%,0.784314%);fill-opacity:1;" d="M 28.03125 19.125 C 28.03125 19.195312 28.03125 19.195312 27.855469 19.230469 C 26.222656 19.496094 26.222656 19.496094 25.589844 19.496094 L 25.589844 19.539062 C 24.71875 19.640625 23.894531 19.707031 22.910156 19.75 C 22.96875 19.714844 22.96875 19.714844 23.03125 19.679688 C 23.300781 19.65625 23.558594 19.636719 23.835938 19.617188 C 25.421875 19.507812 26.761719 19.335938 28.03125 19.125 Z M 28.03125 19.125 "/>
<path style=" stroke:none;fill-rule:nonzero;fill:rgb(0.392157%,0.392157%,0.784314%);fill-opacity:1;" d="M 90.429688 19.355469 C 90.765625 19.417969 91.074219 19.476562 91.359375 19.546875 C 92.152344 19.722656 93.238281 19.839844 94.332031 19.933594 L 93.96875 19.980469 C 93.226562 19.90625 92.554688 19.824219 91.894531 19.726562 C 91.789062 19.710938 91.683594 19.695312 91.578125 19.683594 C 91.050781 19.59375 90.566406 19.488281 90.433594 19.355469 Z M 90.429688 19.355469 "/>
<path style=" stroke:none;fill-rule:nonzero;fill:rgb(0.392157%,0.784314%,0.784314%);fill-opacity:1;" d="M 188.296875 19.355469 C 188.296875 19.453125 188.078125 19.476562 187.734375 19.542969 C 187.652344 19.558594 187.574219 19.574219 187.488281 19.589844 C 187.367188 19.613281 187.367188 19.613281 187.242188 19.636719 C 186.445312 19.78125 185.402344 19.96875 184.28125 20.003906 L 184.28125 19.933594 C 184.417969 19.921875 184.417969 19.921875 184.554688 19.910156 C 186.066406 19.773438 187.164062 19.578125 188.296875 19.355469 Z M 188.296875 19.355469 "/>
<path style=" stroke:none;fill-rule:nonzero;fill:rgb(0.784314%,0.784314%,1.176471%);fill-opacity:1;" d="M 75.074219 18.015625 C 76.539062 18.027344 77.816406 18.148438 78.976562 18.316406 L 79.21875 18.382812 C 78.660156 18.355469 78.324219 18.3125 77.878906 18.246094 C 77.242188 18.171875 76.585938 18.132812 75.867188 18.101562 C 75.539062 18.082031 75.332031 18.054688 75.074219 18.015625 Z M 75.074219 18.015625 "/>
<path style=" stroke:none;fill-rule:nonzero;fill:rgb(0.784314%,0.784314%,1.176471%);fill-opacity:1;" d="M 151.855469 21.367188 L 151.976562 21.414062 C 151.375 21.609375 150.480469 21.851562 149.296875 21.921875 C 149.488281 21.828125 149.84375 21.773438 150.234375 21.710938 C 150.855469 21.605469 151.378906 21.496094 151.855469 21.367188 Z M 151.855469 21.367188 "/>
<path style=" stroke:none;fill-rule:nonzero;fill:rgb(1.176471%,1.176471%,1.568627%);fill-opacity:1;" d="M 137.597656 19.308594 C 137.996094 19.382812 138.351562 19.457031 138.695312 19.539062 L 138.695312 19.585938 L 138.9375 19.585938 L 138.9375 19.632812 C 139.007812 19.640625 139.078125 19.644531 139.148438 19.652344 C 139.433594 19.679688 139.683594 19.710938 139.941406 19.75 C 140.03125 19.761719 140.113281 19.773438 140.203125 19.785156 C 140.269531 19.796875 140.332031 19.808594 140.398438 19.816406 L 140.398438 19.863281 C 139.15625 19.785156 138.253906 19.5625 137.597656 19.355469 Z M 137.597656 19.308594 "/>
<path style=" stroke:none;fill-rule:nonzero;fill:rgb(0.784314%,0.784314%,1.568627%);fill-opacity:1;" d="M 13.648438 19.65625 C 13.726562 19.660156 13.804688 19.664062 13.882812 19.667969 C 14.8125 19.71875 15.746094 19.757812 16.699219 19.796875 C 16.226562 19.84375 16.011719 19.839844 15.480469 19.816406 C 15.382812 19.816406 15.28125 19.8125 15.183594 19.808594 C 14.117188 19.773438 14.117188 19.773438 13.648438 19.703125 Z M 13.648438 19.65625 "/>
<path style=" stroke:none;fill-rule:nonzero;fill:rgb(0.392157%,0.392157%,0.784314%);fill-opacity:1;" d="M 188.90625 19.238281 C 189.734375 19.367188 190.476562 19.511719 191.222656 19.65625 C 190.855469 19.65625 190.855469 19.65625 190.617188 19.617188 C 190.53125 19.597656 190.449219 19.582031 190.363281 19.566406 C 190.035156 19.496094 190.035156 19.496094 189.636719 19.449219 L 189.636719 19.402344 L 189.394531 19.402344 L 189.148438 19.332031 C 188.910156 19.339844 188.667969 19.347656 188.417969 19.355469 Z M 188.90625 19.238281 "/>
<path style=" stroke:none;fill-rule:nonzero;fill:rgb(0%,0%,0.392157%);fill-opacity:1;" d="M 75.929688 19.863281 L 76.050781 19.910156 C 75.148438 20.089844 75.148438 20.089844 74.488281 20.101562 C 74.355469 20.097656 74.355469 20.097656 74.222656 20.09375 L 74.46875 20.074219 L 74.46875 20.027344 C 74.5625 20.015625 74.65625 20.007812 74.753906 19.996094 C 74.878906 19.984375 75 19.972656 75.128906 19.957031 C 75.253906 19.945312 75.375 19.933594 75.503906 19.921875 C 75.792969 19.894531 75.792969 19.894531 75.929688 19.863281 Z M 75.929688 19.863281 "/>
<path style=" stroke:none;fill-rule:nonzero;fill:rgb(1.568627%,1.568627%,1.960784%);fill-opacity:1;" d="M 90.429688 19.355469 C 90.84375 19.433594 91.226562 19.511719 91.597656 19.597656 C 91.808594 19.640625 92.027344 19.683594 92.257812 19.726562 C 91.761719 19.726562 91.648438 19.699219 91.285156 19.632812 C 90.542969 19.46875 90.542969 19.46875 90.429688 19.355469 Z M 90.429688 19.355469 "/>
<path style=" stroke:none;fill-rule:nonzero;fill:rgb(0.784314%,1.176471%,1.176471%);fill-opacity:1;" d="M 108.710938 19.332031 C 109.335938 19.445312 109.90625 19.570312 110.417969 19.703125 C 110.054688 19.703125 110.054688 19.703125 109.847656 19.671875 C 108.710938 19.453125 108.710938 19.453125 108.710938 19.332031 Z M 108.710938 19.332031 "/>
<path style=" stroke:none;fill-rule:nonzero;fill:rgb(1.176471%,1.176471%,1.568627%);fill-opacity:1;" d="M 185.859375 19.773438 L 186.101562 19.773438 L 186.101562 19.816406 C 185.828125 19.855469 185.828125 19.855469 185.464844 19.902344 C 185.285156 19.921875 185.285156 19.921875 185.105469 19.945312 C 184.816406 19.972656 184.597656 19.992188 184.273438 20.003906 L 184.273438 19.933594 C 184.378906 19.925781 184.484375 19.914062 184.589844 19.902344 C 184.726562 19.890625 184.859375 19.878906 185 19.867188 C 185.132812 19.851562 185.265625 19.839844 185.40625 19.828125 C 185.71875 19.800781 185.71875 19.800781 185.859375 19.773438 Z M 185.859375 19.773438 "/>
<path style=" stroke:none;fill-rule:nonzero;fill:rgb(0.392157%,0.392157%,0.784314%);fill-opacity:1;" d="M 110.296875 19.703125 C 111.011719 19.75 111.621094 19.832031 112.246094 19.910156 C 112.042969 19.925781 112.042969 19.925781 111.757812 19.933594 C 111.453125 19.902344 111.453125 19.902344 111.136719 19.859375 C 111.03125 19.84375 110.921875 19.828125 110.8125 19.816406 C 110.539062 19.773438 110.539062 19.773438 110.296875 19.703125 Z M 110.296875 19.703125 "/>
<path style=" stroke:none;fill-rule:nonzero;fill:rgb(97.647059%,98.823529%,99.215686%);fill-opacity:1;" d="M 83.605469 14.015625 L 83.726562 14.015625 L 83.726562 14.613281 L 83.605469 14.613281 Z M 83.605469 14.015625 "/>
<path style=" stroke:none;fill-rule:nonzero;fill:rgb(97.647059%,98.823529%,99.215686%);fill-opacity:1;" d="M 83.605469 15.769531 L 83.726562 15.769531 L 83.726562 16.046875 L 83.605469 16.046875 Z M 83.605469 15.769531 "/>
<path style=" stroke:none;fill-rule:nonzero;fill:rgb(8.627451%,9.019608%,9.019608%);fill-opacity:1;" d="M 4.507812 17.296875 L 4.632812 17.296875 L 4.632812 17.484375 L 4.507812 17.484375 Z M 4.507812 17.296875 "/>
<path style=" stroke:none;fill-rule:nonzero;fill:rgb(0%,0%,0%);fill-opacity:1;" d="M 192.441406 19.910156 C 192.5625 19.921875 192.5625 19.921875 192.683594 19.933594 L 192.5625 19.980469 Z M 192.441406 19.910156 "/>
<path style=" stroke:none;fill-rule:nonzero;fill:rgb(4.313725%,4.705882%,4.313725%);fill-opacity:1;" d="M 5.117188 17.96875 C 5.238281 18.003906 5.238281 18.003906 5.363281 18.039062 L 5.117188 18.039062 Z M 5.117188 17.96875 "/>
<path style=" stroke:none;fill-rule:nonzero;fill:rgb(0%,0%,0.392157%);fill-opacity:1;" d="M 30.347656 18.617188 L 30.46875 18.660156 L 30.226562 18.640625 Z M 30.347656 18.617188 "/>
<path style=" stroke:none;fill-rule:nonzero;fill:rgb(5.490196%,5.882353%,5.882353%);fill-opacity:1;" d="M 5.117188 16.417969 L 5.242188 16.464844 L 4.996094 16.441406 Z M 5.117188 16.417969 "/>
</g>
</svg>
